<?xml version="1.0" standalone="no"?><!DOCTYPE svg PUBLIC "-//W3C//DTD SVG 1.1//EN" "http://www.w3.org/Graphics/SVG/1.1/DTD/svg11.dtd"><svg t="1743023497801" class="icon" viewBox="0 0 1024 1024" version="1.1" xmlns="http://www.w3.org/2000/svg" p-id="47933" xmlns:xlink="http://www.w3.org/1999/xlink" width="24" height="24"><path d="M556.949333 151.829333a242.090667 242.090667 0 0 1 122.24 53.632c38.250667 31.488 64.576 70.698667 78.997334 117.653334 50.986667 11.434667 93.397333 37.546667 127.189333 78.4C920.896 444.416 938.666667 493.653333 938.666667 549.205333c0 31.466667-6.101333 61.589333-18.304 90.346667a230.037333 230.037333 0 0 1-49.813334 73.706667 230.442667 230.442667 0 0 1-73.813333 49.642666c-28.736 12.117333-58.837333 18.176-90.304 18.176h-137.173333l15.146666 13.866667c11.349333 10.389333 14.208 22.741333 8.618667 37.077333-5.546667 14.208-15.914667 21.312-31.104 21.312-8.618667 0-16.128-2.88-22.506667-8.746666l-104.448-95.530667 98.922667-102.762667 0.085333-0.085333c6.421333-6.4 14.165333-9.6 23.189334-9.685333 9.045333-0.085333 16.832 2.986667 23.36 9.258666 6.613333 6.336 10.048 14.08 10.346666 23.232a32.426667 32.426667 0 0 1-8.853333 23.850667l-0.085333 0.085333-20.224 21.013334h144.725333c45.653333 0 84.650667-16.128 116.992-48.405334 32.298667-32.213333 48.426667-70.997333 48.426667-116.373333 0-41.429333-13.781333-77.738667-41.344-108.906667-27.626667-31.253333-62.08-49.429333-103.36-54.549333l-23.765334-2.965333-4.842666-23.552c-8.490667-41.301333-29.312-75.370667-62.421334-102.272-33.173333-26.922667-70.997333-40.405333-113.450666-40.405334-49.557333 0-91.882667 17.514667-126.997334 52.544-35.029333 34.944-52.565333 77.056-52.565333 126.293334 0 1.898667 0.042667 4.138667 0.149333 6.741333l1.365334 38.549333-38.229334-3.968a142.634667 142.634667 0 0 0-14.656-0.746666c-38.528 0-71.445333 13.610667-98.730666 40.832C165.76 503.957333 152.106667 536.661333 152.106667 574.933333s13.632 70.997333 40.874666 98.154667c27.306667 27.242667 60.202667 40.853333 98.730667 40.853333h52.757333c9.130667 0.170667 16.896 3.498667 23.253334 9.962667 6.421333 6.549333 9.642667 14.4 9.642666 23.594667 0 9.173333-3.2 17.066667-9.642666 23.594666-6.357333 6.464-14.101333 9.792-23.253334 9.962667h-52.757333a203.882667 203.882667 0 0 1-80.213333-16.170667 205.098667 205.098667 0 0 1-65.6-44.16 204.8 204.8 0 0 1-44.309334-65.514666A203.221333 203.221333 0 0 1 85.333333 574.933333c0-56.192 19.797333-104.384 59.392-144.533333 37.013333-37.546667 81.301333-57.898667 132.906667-61.141333a240.704 240.704 0 0 1 43.456-115.349334 241.792 241.792 0 0 1 103.573333-84.202666 242.261333 242.261333 0 0 1 132.288-17.898667z m-153.450666 256l75.498666 184v-184h80.896c12.885333 0 22.890667 0.64 29.994667 1.92 10.602667 1.770667 19.669333 5.248 27.157333 10.432 7.765333 5.354667 13.973333 12.757333 18.602667 22.186667 4.650667 9.6 6.912 19.754667 6.784 30.378667 0 18.602667-6.016 34.432-18.048 47.488-12.224 13.290667-33.002667 19.925333-62.336 19.925333h-35.648v74.56h-90.901333l-21.461334-55.552h-61.013333l-20.202667 55.573333h-50.773333l79.68-206.912h41.770667z m298.410666 0v206.912H654.506667v-206.912h47.402666z m-318.784 69.845334l-0.064 0.170666-0.064 0.213334-14.229333 37.888h28.821333l-13.162666-34.858667-0.64-1.706667-0.64-1.706666z m178.773334-24.746667h-35.498667v42.133333h35.989333c12.842667 0 21.482667-1.962667 25.92-5.888 3.968-3.52 5.973333-8.789333 5.973334-15.808 0-5.12-1.216-9.386667-3.626667-12.8a15.466667 15.466667 0 0 0-8.981333-6.378666c-3.136-0.832-9.728-1.237333-19.776-1.237334z" p-id="47934"></path></svg>