<?xml version="1.0" standalone="no"?><!DOCTYPE svg PUBLIC "-//W3C//DTD SVG 1.1//EN" "http://www.w3.org/Graphics/SVG/1.1/DTD/svg11.dtd"><svg t="1743021651759" class="icon" viewBox="0 0 1024 1024" version="1.1" xmlns="http://www.w3.org/2000/svg" p-id="20579" xmlns:xlink="http://www.w3.org/1999/xlink" width="24" height="24"><path d="M387.61813333 830.57777813h0.04551147c53.0204448 0 80.8732448-47.104 88.97422187-74.9112896l0.09102186-0.2275552 0.09102294-0.4096c19.8428448-83.42186667 40.1408-168.1180448 60.4387552-251.6764448h59.9836448a36.864 36.864 0 0 0 36.4999104-37.0915552 36.864 36.864 0 0 0-36.4999104-37.0915552h-41.87022294c5.46133333-21.61777813 7.64586667-29.85528853 8.51057814-32.90453333l2.048-6.9632c3.54986667-12.33351147 9.46631147-32.9955552 17.70382186-50.3808 8.96568853-19.0691552 17.0211552-25.85031147 21.4812448-25.85031147 10.8316448 0 15.29173333 21.34471147 16.01991147 28.76302187a36.90951147 36.90951147 0 0 0 39.27608853 34.04231147 36.09031147 36.09031147 0 0 0 24.89457814-12.8796448 37.22808853 37.22808853 0 0 0 8.6471104-26.94257707 130.79893333 130.79893333 0 0 0-20.48-59.93813333C657.1804448 251.76746667 633.51466667 238.93333333 605.1612448 238.93333333c-31.63022187 0-58.02666667 17.3852448-78.55217813 51.70062187-15.92888853 26.66951147-24.8035552 57.48053333-30.67448854 77.824l-1.91146666 6.5080896c-2.00248853 6.7811552-6.64462187 25.03111147-13.8808896 54.20373333H406.64177813a35.95377813 35.95377813 0 0 0-25.7592896 10.92266667 37.13706667 37.13706667 0 0 0-10.6951104 26.16888853c0 20.43448853 16.384 37.0460448 36.4999104 37.0460448h55.34151147c-20.43448853 84.3776-44.6464 186.04942187-52.6563552 219.68213334l-2.8672 11.9239104c-2.6396448 7.5548448-9.92142187 21.57226667-18.8416 21.57226666-20.2524448 0-31.5392-34.36088853-31.63022293-34.67946666a36.81848853 36.81848853 0 0 0-35.0435552-26.6695104 37.22808853 37.22808853 0 0 0-35.08906667 47.42257706c9.32977813 32.72248853 41.23306667 88.01848853 101.71733333 88.0184896z m283.39768854-299.5996448c-5.77991147-8.14648853-15.3827552-18.97813333-31.63022187-18.97813333-19.2512 0-33.7692448 16.42951147-33.7692448 38.22933333 0 10.37653333 3.41333333 19.70631147 10.74062293 29.4912l34.26986667 44.69191147-38.13831147 51.06346667a42.91697813 42.91697813 0 0 0-9.46631146 27.2611552c0 20.61653333 14.9731552 36.81848853 34.08782293 36.81848853 11.01368853 0 20.79857813-6.18951147 29.9463104-18.93262187l0.1820448-0.2275552 26.16888853-39.00302293 26.07786667 38.912 0.1820448 0.27306667c5.77991147 8.14648853 15.3372448 18.97813333 31.63022187 18.97813333 19.2512 0 33.7692448-16.47502187 33.7692448-38.22933333 0-10.37653333-3.4588448-19.70631147-10.8316448-29.58222187l-37.04604374-48.24177813 35.8627552-47.46808854 0.2275552-0.31857813c3.95946667-5.59786667 9.1932448-14.47253333 9.1932448-26.8515552 0-20.6620448-14.9731552-36.864-34.04231146-36.864-16.29297813 0-26.624 14.24497813-29.99182187 18.93262187l-0.13653333 0.1820448-23.84782187 35.31662186-23.3472-35.31662186-0.09102293-0.13653334z" p-id="20580"></path><path d="M902.07573333 56.88888853H121.96977813C86.15253333 56.88888853 56.88888853 91.02222187 56.88888853 132.75591147v758.48817706C56.88888853 932.97777813 86.15253333 967.11111147 121.92426667 967.11111147H902.03022187c35.77173333 0 65.03537813-34.13333333 65.03537813-75.86702294V132.75591147C967.11111147 91.02222187 937.84746667 56.88888853 902.07573333 56.88888853z m0 796.4444448c0 18.97813333-12.97066667 37.9107552-32.49493333 37.9107552H154.4192c-19.52426667 0-32.49493333-18.93262187-32.49493333-37.9107552v-682.66666666c0-18.97813333 12.97066667-37.9107552 32.49493333-37.9107552h715.1616c19.52426667 0 32.49493333 18.93262187 32.49493333 37.9107552v682.66666666z" p-id="20581"></path></svg>