<?xml version="1.0" standalone="no"?><!DOCTYPE svg PUBLIC "-//W3C//DTD SVG 1.1//EN" "http://www.w3.org/Graphics/SVG/1.1/DTD/svg11.dtd"><svg t="1743021791355" class="icon" viewBox="0 0 1024 1024" version="1.1" xmlns="http://www.w3.org/2000/svg" p-id="28881" xmlns:xlink="http://www.w3.org/1999/xlink" width="24" height="24"><path d="M840.533333 896a12.8 12.8 0 0 0 12.8-12.8V396.8a12.8 12.8 0 0 0-12.8-12.8H725.333333a85.333333 85.333333 0 0 1-85.333333-85.333333V140.8a12.8 12.8 0 0 0-12.8-12.8H183.466667a12.8 12.8 0 0 0-12.8 12.8v315.733333a12.8 12.8 0 0 1-12.8 12.8H98.133333a12.8 12.8 0 0 1-12.8-12.8V85.333333a42.666667 42.666667 0 0 1 42.666667-42.666666h596.8c0.298667 0 0.533333 0.213333 0.533333 0.512 0 0.234667 0.170667 0.448 0.426667 0.512a42.666667 42.666667 0 0 1 22.997333 13.76l179.541334 207.872A42.666667 42.666667 0 0 1 938.666667 293.205333V938.666667a42.666667 42.666667 0 0 1-42.666667 42.666666H128a42.666667 42.666667 0 0 1-42.666667-42.666666v-115.2a12.8 12.8 0 0 1 12.8-12.8h59.733334a12.8 12.8 0 0 1 12.8 12.8v59.733333a12.8 12.8 0 0 0 12.8 12.8h657.066666z m-24.170666-597.333333a12.8 12.8 0 0 0 9.685333-21.162667L747.818667 186.88A12.8 12.8 0 0 0 725.333333 195.264V285.866667a12.8 12.8 0 0 0 12.8 12.8h78.229334z" fill="#000000" p-id="28882"></path><path d="M288.085333 600.746667c0-41.301333-30.037333-75.776-80.213333-75.776H132.864a19.2 19.2 0 0 0-19.2 19.2V748.8a19.2 19.2 0 0 0 19.2 19.2h9.045333a19.2 19.2 0 0 0 19.2-19.2v-53.077333a19.2 19.2 0 0 1 19.2-19.2h27.562667c50.176 0 80.213333-34.474667 80.213333-75.776z m-47.445333 0c0 19.797333-13.653333 33.109333-35.157333 33.109333h-25.173334a19.2 19.2 0 0 1-19.2-19.2v-28.16a19.2 19.2 0 0 1 19.2-19.2h25.173334c21.504 0 35.157333 13.653333 35.157333 33.450667zM504.469333 645.461333c0-36.522667 2.730667-69.973333-24.576-97.28-16.042667-16.042667-38.912-23.210667-64.170666-23.210666h-68.522667a19.2 19.2 0 0 0-19.2 19.2V748.8a19.2 19.2 0 0 0 19.2 19.2h68.522667c25.258667 0 48.128-7.168 64.170666-23.210667 27.306667-27.306667 24.576-62.805333 24.576-99.328z m-47.445333 0c0 36.864-1.365333 54.272-10.24 65.194667-8.192 9.898667-19.114667 15.018667-35.498667 15.018667h-16.64a19.2 19.2 0 0 1-19.2-19.2v-119.978667a19.2 19.2 0 0 1 19.2-19.2h16.64c16.384 0 27.306667 5.12 35.498667 15.018667 8.874667 10.922667 10.24 26.282667 10.24 63.146666zM693.888 567.296a19.2 19.2 0 0 0 19.2-19.2v-3.925333a19.2 19.2 0 0 0-19.2-19.2h-121.685333a19.2 19.2 0 0 0-19.2 19.2V748.8a19.2 19.2 0 0 0 19.2 19.2h9.045333a19.2 19.2 0 0 0 19.2-19.2v-60.245333a19.2 19.2 0 0 1 19.2-19.2h57.514667a19.2 19.2 0 0 0 19.2-19.2v-3.925334a19.2 19.2 0 0 0-19.2-19.2h-57.514667a19.2 19.2 0 0 1-19.2-19.2v-21.333333a19.2 19.2 0 0 1 19.2-19.2h74.24z" fill="#000000" p-id="28883"></path><path d="M256 226.133333a12.8 12.8 0 0 1 12.8-12.8h230.4a12.8 12.8 0 0 1 12.8 12.8v59.733334a12.8 12.8 0 0 1-12.8 12.8H268.8a12.8 12.8 0 0 1-12.8-12.8v-59.733334z" fill="#000000" p-id="28884"></path></svg>