<svg class="icon" height="200" p-id="20071" t="1729777125015" version="1.1" viewBox="0 0 1059 1024" width="200" xmlns="http://www.w3.org/2000/svg">
 <path d="M513.498465 1024c282.150046 0 511.671069-229.521022 511.671069-511.597973 0-282.223142-229.521022-511.744164-511.671069-511.744164s-511.671069 229.521022-511.671068 511.744164c0 281.967307 229.521022 511.597973 511.671068 511.597973zM317.309158 459.042044l210.552645-210.516096a75.508031 75.508031 0 0 1 106.610322 0c14.765365 14.765365 22.074952 33.989578 22.074952 53.250339 0 19.224213-7.309587 38.594618-22.074952 53.213791l-157.265758 157.302305 157.265758 157.265758a75.471483 75.471483 0 0 1 0 106.610322 75.508031 75.508031 0 0 1-106.610322 0l-210.516097-210.516097a75.252195 75.252195 0 0 1 0-106.610322z" fill="#42B983" p-id="20072">
 </path>
</svg>
