<svg class="icon" height="200" p-id="46112" t="1721137205128" version="1.1" viewBox="0 0 1055 1024" width="200" xmlns="http://www.w3.org/2000/svg">
 <path d="M579.107188 899.691186a358.145837 358.145837 0 0 1-8.172455 75.715395 324.734916 324.734916 0 0 1-13.941247 48.073266H85.635106a103.357523 103.357523 0 0 1-14.662346 0 84.849316 84.849316 0 0 1-69.706237-98.30983 450.686875 450.686875 0 0 1 273.056155-339.877995 335.070669 335.070669 0 0 1-50.47693-41.34301 356.463272 356.463272 0 0 1 355.26144 356.944005z" fill="#00CC86" p-id="46113">
 </path>
 <path d="M887.977927 494.673914a24.036633 24.036633 0 0 1-13.220149-3.845861 24.036633 24.036633 0 0 1-6.730257-33.170554 212.483839 212.483839 0 0 0-212.483839-326.177115 24.036633 24.036633 0 0 1-27.642128-19.710039 24.036633 24.036633 0 0 1 19.710039-27.642128 260.316739 260.316739 0 0 1 260.557106 399.729212 24.036633 24.036633 0 0 1-20.190772 10.816485zM981.720797 915.314997h-121.625365a24.036633 24.036633 0 1 1 0-48.073266h121.625365a25.478831 25.478831 0 0 0 25.719197-25.478832 10.816485 10.816485 0 0 0 0-2.644029v-3.365129a317.764293 317.764293 0 0 0-126.913424-201.426987 24.036633 24.036633 0 1 1 28.363228-38.69898 365.356827 365.356827 0 0 1 146.14273 233.876442v12.258683a73.552098 73.552098 0 0 1-73.311731 73.552098z" fill="#492F5D" p-id="46114">
 </path>
 <path d="M808.176304 1023.479847H85.635106a50.236564 50.236564 0 0 1-14.42198 0 82.926385 82.926385 0 0 1-55.284257-34.612752 84.128217 84.128217 0 0 1-14.662346-63.456712 451.64834 451.64834 0 0 1 273.056155-340.118361 323.773451 323.773451 0 0 1-93.983237-94.704336 317.043194 317.043194 0 1 1 441.552955 92.300672l-2.884396 1.922931a453.811637 453.811637 0 0 1 273.296521 340.358728 103.357523 103.357523 0 0 1 1.201831 14.662346 85.330048 85.330048 0 0 1-85.330048 83.647484z m-722.541198-48.073266h722.541198a37.016415 37.016415 0 0 0 37.256782-37.016416 59.130118 59.130118 0 0 0 0-6.249524 403.334707 403.334707 0 0 0-243.971829-303.342313 48.073267 48.073267 0 0 1-26.680663-62.975979 48.073267 48.073267 0 0 1 14.902713-19.71004 13.700881 13.700881 0 0 1 3.605495-2.884396A269.210293 269.210293 0 1 0 301.243707 91.09884a269.210293 269.210293 0 0 0 0 452.129073 48.073267 48.073267 0 0 1 13.941247 67.302574 48.073267 48.073267 0 0 1-21.873336 18.027475A402.853975 402.853975 0 0 0 49.099423 932.381007a36.05495 36.05495 0 0 0 6.489891 27.401762 36.535683 36.535683 0 0 0 24.036634 15.143079 28.363227 28.363227 0 0 0 6.009158 0.480733z" fill="#492F5D" p-id="46115">
 </path>
</svg>
