<svg class="icon" height="200" p-id="12081" t="1730723970287" version="1.1" viewBox="0 0 1024 1024" width="200" xmlns="http://www.w3.org/2000/svg">
 <path d="M133.632 0h334.848v465.408H0V133.632A134.144 134.144 0 0 1 133.632 0z m0 0" fill="#9F6136" p-id="12082">
 </path>
 <path d="M1024 132.608v331.776h-468.48V0h334.848A133.632 133.632 0 0 1 1024 132.608z m0 0" fill="#883D7A" p-id="12083">
 </path>
 <path d="M0 891.392v-331.776h468.48V1024H133.632A133.632 133.632 0 0 1 0 891.392z m0 0" fill="#7EAED7" p-id="12084">
 </path>
 <path d="M890.368 1024h-334.848v-465.92H1024v331.776A134.144 134.144 0 0 1 890.368 1024z m0 0" fill="#618D40" p-id="12085">
 </path>
</svg>
