<svg class="icon" height="200" p-id="19950" t="1730724779426" version="1.1" viewBox="0 0 1024 1024" width="200" xmlns="http://www.w3.org/2000/svg">
 <path d="M425.6 59.6h136.9v215H425.6z" fill="#8DA3BA" p-id="19951">
 </path>
 <path d="M809.2 419.7V174.5c0-16.4-13.3-29.6-29.6-29.6h-76.2c-16.4 0-29.6 13.3-29.6 29.6v154.7c0 16.4 13.3 29.6 29.6 29.6 0 0 105.8 77.2 105.8 60.9z" fill="#8CA2B7" p-id="19952">
 </path>
 <path d="M494.7 1023.9c-227.3 0-412.2-184.9-412.2-412.2 0-227.3 184.9-412.2 412.2-412.2s412.2 184.9 412.2 412.2c0 227.2-184.9 412.2-412.2 412.2z m0-709.6c-164 0-297.3 133.4-297.3 297.3 0 164 133.4 297.3 297.3 297.3 164 0 297.4-133.4 297.4-297.3-0.1-163.9-133.5-297.3-297.4-297.3z" fill="#9C9B9B" p-id="19953">
 </path>
 <path d="M650.2 110.8c0 16.4-13.3 29.6-29.6 29.6H368.8c-16.4 0-29.6-13.3-29.6-29.6V34.6c0-16.4 13.3-29.6 29.6-29.6h251.8c16.4 0 29.6 13.3 29.6 29.6v76.2z" fill="#4F637B" p-id="19954">
 </path>
 <path d="M839.5 611.7c0 190.4-154.4 344.8-344.8 344.8S149.9 802.1 149.9 611.7s154.4-344.8 344.8-344.8c190.4-0.1 344.8 154.3 344.8 344.8z" fill="#FFFFFF" p-id="19955">
 </path>
 <path d="M356.7 578.4v53.8c0 12.2-0.7 21.1-2 26.7-1.3 5.6-4.1 10.8-8.3 15.6-4.2 4.9-9.2 8.3-15.1 10.5-5.9 2.1-12.5 3.2-19.8 3.2-9.6 0-17.6-1.1-24-3.3-6.4-2.2-11.5-5.7-15.2-10.4-3.8-4.7-6.5-9.7-8.1-14.9-1.6-5.2-2.4-13.5-2.4-24.9v-56.3c0-14.8 1.3-25.9 3.8-33.3 2.6-7.4 7.6-13.3 15.2-17.7 7.6-4.4 16.8-6.7 27.6-6.7 8.8 0 16.7 1.6 23.7 4.6 7 3.1 12.2 6.9 15.6 11.3 3.4 4.5 5.8 9.5 7 15 1.4 5.7 2 14.6 2 26.8z m-40.2-13.6c0-8.6-0.4-13.9-1.2-16.1-0.8-2.2-2.8-3.2-5.8-3.2s-5 1.1-5.9 3.4c-1 2.3-1.4 7.6-1.4 15.9v78.7c0 9.4 0.4 15 1.3 16.9 0.9 1.9 2.8 2.9 5.8 2.9s4.9-1.1 5.9-3.4c0.9-2.3 1.4-7.3 1.4-15.2v-79.9zM466.1 578.4v53.8c0 12.2-0.7 21.1-2 26.7-1.3 5.6-4.1 10.8-8.3 15.6-4.2 4.9-9.2 8.3-15.1 10.5-5.9 2.1-12.5 3.2-19.8 3.2-9.6 0-17.6-1.1-24-3.3-6.4-2.2-11.5-5.7-15.2-10.4-3.8-4.7-6.5-9.7-8.1-14.9-1.6-5.2-2.4-13.5-2.4-24.9v-56.3c0-14.8 1.3-25.9 3.8-33.3 2.5-7.4 7.6-13.3 15.2-17.7 7.6-4.4 16.8-6.7 27.6-6.7 8.8 0 16.7 1.6 23.7 4.6 7 3.1 12.2 6.9 15.6 11.3 3.5 4.5 5.8 9.5 7 15 1.4 5.7 2 14.6 2 26.8z m-40.2-13.6c0-8.6-0.4-13.9-1.3-16.1-0.8-2.2-2.8-3.2-5.8-3.2s-5 1.1-5.9 3.4c-1 2.3-1.4 7.6-1.4 15.9v78.7c0 9.4 0.4 15 1.3 16.9 0.9 1.9 2.8 2.9 5.8 2.9s4.9-1.1 5.9-3.4c0.9-2.3 1.4-7.3 1.4-15.2v-79.9zM510.9 580.1v32.8h-30.4v-32.8h30.4z m0 72.1v32.9h-30.4v-32.9h30.4zM616.7 578.4v53.8c0 12.2-0.7 21.1-2 26.7-1.3 5.6-4.1 10.8-8.3 15.6-4.2 4.9-9.2 8.3-15.1 10.5-5.9 2.1-12.5 3.2-19.8 3.2-9.6 0-17.6-1.1-24-3.3-6.4-2.2-11.4-5.7-15.2-10.4-3.8-4.7-6.5-9.7-8.1-14.9-1.6-5.2-2.4-13.5-2.4-24.9v-56.3c0-14.8 1.3-25.9 3.8-33.3 2.6-7.4 7.6-13.3 15.2-17.7 7.6-4.4 16.8-6.7 27.6-6.7 8.8 0 16.7 1.6 23.7 4.6 7 3.1 12.2 6.9 15.6 11.3 3.5 4.5 5.8 9.5 7 15 1.4 5.7 2 14.6 2 26.8z m-40.2-13.6c0-8.6-0.4-13.9-1.2-16.1-0.8-2.2-2.8-3.2-5.8-3.2s-5 1.1-5.9 3.4c-1 2.3-1.4 7.6-1.4 15.9v78.7c0 9.4 0.5 15 1.3 16.9 0.9 1.9 2.8 2.9 5.8 2.9s4.9-1.1 5.9-3.4c0.9-2.3 1.4-7.3 1.4-15.2v-79.9zM726.1 578.4v53.8c0 12.2-0.7 21.1-2 26.7-1.3 5.6-4.1 10.8-8.3 15.6-4.2 4.9-9.2 8.3-15.1 10.5-5.9 2.1-12.5 3.2-19.8 3.2-9.6 0-17.6-1.1-24-3.3-6.4-2.2-11.5-5.7-15.2-10.4-3.8-4.7-6.5-9.7-8.1-14.9-1.6-5.2-2.4-13.5-2.4-24.9v-56.3c0-14.8 1.3-25.9 3.8-33.3 2.6-7.4 7.6-13.3 15.2-17.7 7.6-4.4 16.8-6.7 27.6-6.7 8.8 0 16.7 1.6 23.7 4.6 7 3.1 12.2 6.9 15.6 11.3 3.4 4.5 5.8 9.5 7 15 1.4 5.7 2 14.6 2 26.8z m-40.3-13.6c0-8.6-0.4-13.9-1.2-16.1-0.8-2.2-2.8-3.2-5.8-3.2s-5 1.1-5.9 3.4c-1 2.3-1.4 7.6-1.4 15.9v78.7c0 9.4 0.4 15 1.3 16.9 0.9 1.9 2.8 2.9 5.8 2.9s4.9-1.1 5.9-3.4c0.9-2.3 1.4-7.3 1.4-15.2v-79.9z" fill="#F15A29" p-id="19956">
 </path>
</svg>
