<svg class="icon" height="200" p-id="22453" t="1721217466391" version="1.1" viewBox="0 0 1024 1024" width="200" xmlns="http://www.w3.org/2000/svg">
 <path d="M512 0a512 512 0 1 1-512 512 512 512 0 0 1 512-512z" fill="#FFE6C6" p-id="22454">
 </path>
 <path d="M369.700571 710.4a56.649143 56.649143 0 0 1-55.990857-64.438857 530.285714 530.285714 0 0 1 134.326857-297.033143c106.825143-106.861714 261.449143-131.657143 322.962286-137.508571a37.595429 37.595429 0 0 1 40.996572 40.96c-5.668571 61.513143-30.464 216.173714-137.289143 322.962285a530.614857 530.614857 0 0 1-297.033143 134.326857 57.856 57.856 0 0 1-7.936 0.548572z m404.589715-461.238857c-57.453714 5.302857-201.618286 28.342857-299.885715 126.427428a493.056 493.056 0 0 0-123.611428 275.492572 18.907429 18.907429 0 0 0 21.467428 21.430857 492.873143 492.873143 0 0 0 275.492572-123.611429c98.340571-98.121143 121.380571-242.395429 126.537143-299.739428z m-1.536-18.797714z" fill="#FFAA00" p-id="22455">
 </path>
 <path d="M308.077714 716.214857l-16.932571 63.085714-46.189714-46.043428 63.085714-17.042286m26.733714-45.531428a19.163429 19.163429 0 0 0-4.973714 0.658285l-126.171429 33.828572a18.870857 18.870857 0 0 0-8.448 31.561143l92.379429 92.342857a18.578286 18.578286 0 0 0 13.275428 5.522285 18.797714 18.797714 0 0 0 18.285715-13.970285l33.792-126.171429a18.870857 18.870857 0 0 0-18.285715-23.771428z m408.685714-220.16a13.970286 13.970286 0 0 1-2.011428 0 188.635429 188.635429 0 0 1-167.606857-167.606858 18.870857 18.870857 0 1 1 37.522285-3.949714 150.857143 150.857143 0 0 0 134.070858 134.070857 18.870857 18.870857 0 0 1-1.938286 37.595429zM681.362286 316.269714a18.870857 18.870857 0 1 0 0-26.660571 18.870857 18.870857 0 0 0 0.073143 26.770286zM548.022857 528.969143a65.828571 65.828571 0 0 1-46.665143-112.603429 18.870857 18.870857 0 1 1 26.660572 26.660572 28.342857 28.342857 0 1 0 40.009143 40.009143 18.870857 18.870857 0 1 1 26.660571 26.697142 65.828571 65.828571 0 0 1-46.665143 19.236572z" fill="#FFAA00" p-id="22456">
 </path>
</svg>
