<svg class="icon" height="200" p-id="35579" t="1721052702724" version="1.1" viewBox="0 0 1024 1024" width="200" xmlns="http://www.w3.org/2000/svg">
 <path d="M898.606545 1024H124.369455A124.741818 124.741818 0 0 1 0 899.630545V124.369455A124.741818 124.741818 0 0 1 124.369455 0h775.26109A124.741818 124.741818 0 0 1 1024 124.369455v775.26109C1022.976 968.052364 966.981818 1024 898.606545 1024z" fill="#FFFFFF" p-id="35580">
 </path>
 <path d="M645.678545 915.176727c-180.317091 47.662545-318.184727-13.498182-414.533818-104.680727-65.303273-61.160727-105.751273-133.725091-130.606545-220.765091-21.783273-74.612364-19.688727-155.461818-19.688727-235.287273 0-41.425455 24.855273-134.702545 32.116363-172.032C61.160727 262.237091 0 408.343273 0 508.881455c0 281.925818 229.050182 510.976 510.976 510.976 125.393455 0 263.261091-95.371636 329.541818-192.791273-127.441455 58.042182-105.658182 65.303273-194.839273 88.110545z" fill="#643B98" p-id="35581">
 </path>
 <path d="M817.757091 70.469818A512.605091 512.605091 0 0 0 623.941818 4.189091C391.773091-25.925818 128.465455 124.369455 103.656727 355.514182c109.847273-215.598545 277.736727-298.496 478.813091-272.616727 63.208727 8.331636 123.345455 26.996364 177.245091 55.994181l58.042182-68.421818z" fill="#643B98" p-id="35582">
 </path>
 <path d="M598.016 803.234909c-1.024 1.024-2.048 1.024-3.118545 3.118546-2.048 3.118545-3.072 10.379636-5.166546 14.522181-1.024 2.048-8.285091 11.403636-8.285091 13.498182 0 2.048 2.048 4.096 5.166546 6.190546-13.498182 2.048-25.879273 4.142545-39.377455 5.166545 2.094545-3.118545 3.118545-6.237091-5.166545-6.237091 2.048-6.190545 7.261091-9.309091 9.309091-14.475636 1.024-3.118545 0-3.118545 1.024-6.237091 3.118545-9.309091 2.094545-6.237091 0-13.498182 0-1.024-1.024-1.024-1.024-2.048H360.727273v-333.730909l-6.237091-6.237091c-9.309091-11.357091-18.618182-23.831273-26.949818-36.258909-3.072-5.166545-2.048-7.261091-7.214546-12.427636-5.213091-4.189091-10.379636-6.237091-14.522182-10.379637-16.570182-14.522182-19.688727-35.234909-17.640727-54.923636 1.070545-7.261091 3.118545-12.427636 2.094546-18.618182a29.556364 29.556364 0 0 0-8.285091-14.568727 70.656 70.656 0 0 0-5.213091-7.214546c-3.072-6.237091-6.190545-12.474182-12.427637-16.616727a150.807273 150.807273 0 0 0-20.712727-15.546182 350.859636 350.859636 0 0 1 141.963636-105.658182c1.070545 3.072 2.094545 6.190545 3.118546 8.238546 5.213091 7.261091 9.309091 6.237091 17.640727 8.285091-1.070545 10.379636-13.498182 10.379636-20.759273 9.309091-10.333091-0.977455-19.688727-5.12-28.997818 4.189091 5.166545 3.118545 17.594182 13.498182 15.546182 2.048 9.309091-1.024 18.618182-1.024 27.973818 1.070545 3.118545 1.024 15.546182 5.166545 19.688728 3.072 1.024-1.024 3.118545-7.214545 4.18909-10.333091-2.094545 0-5.213091-1.024-8.331636-1.024 6.237091-7.261091 12.427636-2.094545 19.688727 2.048-8.285091 5.166545-3.118545 17.640727 5.213091 7.261091 7.214545-8.285091-2.094545-14.522182-10.379636-19.688727 9.309091-11.403636 14.522182-11.403636 22.807273 1.024 1.024-7.261091 7.261091-5.166545 14.522181-4.142546v-2.094545c-3.118545 0-6.237091-2.048-9.30909-1.024 6.190545-10.333091 2.048-13.498182 11.35709-16.570182 7.261091-3.118545 29.044364 0 31.092364-7.261091-14.522182 3.118545-33.140364 3.118545-46.638545 10.379637-6.237091 3.118545-13.498182 12.427636-18.618182 6.190545-6.237091-6.190545 4.096-15.546182 9.309091-18.618182H443.578182a347.554909 347.554909 0 0 1 73.588363-7.261091c16.616727 0 32.116364 1.024 47.709091 3.072-5.213091 3.118545-1.070545 5.213091-5.213091 7.261091-7.261091 5.213091-20.712727 10.379636-30.021818 13.498182 11.357091 0 39.377455 10.333091 44.544-5.213091-3.118545-1.024-7.261091-1.024-11.403636-2.048 7.261091-5.166545 14.522182-8.285091 22.807273-11.403636a350.254545 350.254545 0 0 1 186.554181 102.586182h-2.048c-13.498182 1.070545-22.807273 1.070545-34.210909 8.331636-5.213091 3.072-7.261091 7.214545-13.498181 9.309091-5.166545 1.024-10.333091 0-15.546182 2.094545-18.618182 6.190545-15.546182 44.544-39.377455 39.377455-11.403636-3.118545-18.618182-15.546182-24.855273-24.901818-5.213091-7.261091-14.522182-14.475636-7.26109-23.831273-3.118545 1.024-6.237091 0-8.285091 1.024 3.072-8.285091 16.570182-7.214545 18.618181-11.403636 5.213091-10.333091-14.475636-11.357091-19.688727-13.451637 6.237091-7.261091 10.379636 2.094545 16.616727 1.024 6.190545-2.048-3.118545-10.333091-7.26109-11.403636-1.024-1.024-23.831273 6.237091-11.403637-5.166546-15.546182-10.379636-32.116364-20.712727-48.733091-31.092363-3.118545 11.403636 21.783273 18.618182 29.044364 21.783272-1.024 5.12-9.309091 11.403636-14.522182 9.309091-5.166545-2.094545-3.118545-10.379636-11.403636-10.379636-6.237091 13.498182 12.427636 9.309091 13.498182 17.640727 2.048 9.309091-6.237091 5.166545-10.379637 5.166546-1.024 0-7.261091-6.190545-7.261091-2.048-1.024 6.190545 10.379636 3.072 10.379637 9.309091-11.403636 1.024-18.664727-4.142545-28.020364-10.379637-11.357091-7.214545-16.570182-7.214545-31.092364-7.214545 4.189091-2.094545 10.379636-3.118545 13.498182-6.237091l10.379637-10.379636c2.048-7.261091 0-6.190545-7.261091-11.403637-6.237091-4.142545-13.498182-11.403636-20.759273-13.498182-26.949818-5.12-8.285091 23.877818-27.927273 28.020364h0.977455-1.024c-5.166545 0-13.498182-1.024-16.570182 1.024-2.094545 2.094545-2.094545 9.309091-5.166546 11.403636-4.189091 5.213091-10.379636 5.213091-15.546181 9.309091-5.213091 3.118545-15.546182 11.450182-18.664728 16.616728-10.379636 20.712727 23.831273 26.949818 37.282909 33.140363 6.237091 3.118545 23.877818 6.237091 26.996364 10.379637 4.096 6.237091-3.118545 11.403636 5.12 15.546181 3.118545 1.024 9.355636 2.094545 11.450182-1.024 4.142545-5.166545-2.094545-6.237091-2.094546-10.379636-2.048-10.333091 1.024-6.190545 6.237091-10.333091 10.333091-7.261091 8.285091-8.331636 4.142546-20.759273-2.094545-6.190545-8.285091-21.736727-2.094546-25.879272 7.261091-5.213091 23.831273 3.072 29.044364 3.072 6.190545 1.070545 10.333091 10.379636 14.475636 14.522181 2.094545 2.094545 7.261091 7.261091 11.403637 7.261091 6.237091-1.024 4.189091-7.261091 7.261091-9.309091 10.379636-7.261091 13.498182 2.048 17.640727 12.427637 4.142545 9.309091 7.261091 13.498182 14.522182 18.618182 3.072 3.118545 17.594182 13.498182 15.546182 18.664727-1.070545 4.189091-16.616727 10.379636-21.783273 11.403636-15.546182 5.213091-45.614545-8.285091-48.733091 16.616728 6.237091-2.094545 23.877818-16.616727 29.044364-10.379637 2.048 3.118545-2.094545 7.261091-1.024 10.379637 3.072 9.309091 10.333091 6.190545 17.594181 5.12-1.024 1.070545-1.024 1.070545-2.048 1.070545 10.333091-5.166545 9.309091-4.142545 13.498182-12.427636 2.048-3.118545 3.072-9.309091 6.190546-11.403637 7.261091-7.261091 8.285091-2.094545 13.498181 3.118546 0.977455 1.024 12.381091 17.594182 8.238546 16.570182-13.498182-2.048-25.879273-2.048-36.305455 5.166545-6.190545 4.189091-12.381091 10.379636-19.642181 12.474182-2.094545 1.024-15.546182 2.048-13.498182-1.070546 2.094545-3.072 10.379636-5.166545 13.498182-9.309091-9.309091-3.118545-15.546182 4.142545-22.807273 9.309091-5.166545 2.094545-7.261091 6.237091-10.379637 10.379637h330.65891c-50.827636-155.461818-198.004364-267.403636-372.084364-267.403637-219.741091 0-398.010182 178.269091-398.010182 397.963637 0 219.741091 178.269091 397.032727 396.939636 397.032727a393.867636 393.867636 0 0 0 250.833455-89.181091h-169.984z" fill="#2F82B9" p-id="35583">
 </path>
 <path d="M337.92 429.102545c-1.070545-1.070545 3.072 10.333091 3.072 10.333091 4.142545 7.261091 10.379636 14.522182 15.546182 21.783273 1.024 2.048 2.048 3.118545 3.118545 5.166546v-17.594182c-7.261091-9.309091-9.309091-17.640727-21.783272-19.688728z m376.180364 333.73091H621.847273v-178.269091c0-51.851636-18.618182-77.730909-55.947637-77.730909-17.640727 0-32.116364 7.261091-44.590545 20.712727-11.403636 13.498182-17.594182 31.092364-17.594182 52.875636v182.411637H410.437818v-320.232728h93.277091v50.734546h1.024c23.831273-39.377455 58.042182-58.042182 102.632727-58.042182 70.469818 0 105.658182 43.52 105.658182 131.630545l1.070546 195.909819z m72.564363-167.936l114.036364-152.343273h-81.92l-90.158546 133.725091a237.288727 237.288727 0 0 0-9.30909 16.570182h-1.070546v12.427636h1.024c3.118545 7.261091 6.237091 13.498182 8.331636 16.570182l96.349091 139.915636h86.062546c1.024 0-123.345455-166.865455-123.345455-166.865454z m137.821091-94.301091c0-15.546182 5.213091-27.973818 13.498182-37.329455 9.309091-9.309091 20.712727-14.475636 35.234909-14.475636s26.949818 5.166545 36.305455 14.475636c9.309091 10.379636 13.451636 22.807273 13.451636 37.329455 0 15.546182-5.213091 27.973818-14.522182 37.329454a44.869818 44.869818 0 0 1-35.234909 15.546182 44.869818 44.869818 0 0 1-35.234909-15.546182c-9.309091-9.309091-13.498182-21.783273-13.498182-37.329454z m24.901818 260.189091v-183.482182h52.829091v183.435636h-52.829091z" fill="#643B98" p-id="35584">
 </path>
</svg>
