<svg class="icon" height="200" p-id="34547" t="1721052659842" version="1.1" viewBox="0 0 1067 1024" width="200" xmlns="http://www.w3.org/2000/svg">
 <path d="M371.565714 795.062857C184.32 582.217143 125.805714 514.194286 106.057143 488.594286l-21.942857-29.257143 25.6-22.674286c14.628571-13.165714 65.097143-57.782857 113.371428-100.205714 47.542857-42.422857 93.622857-83.382857 102.4-91.428572 59.245714-55.588571 94.354286-84.114286 104.594286-84.114285 13.897143 0 52.662857 35.84 52.662857 48.274285 0 4.388571-13.897143 21.211429-30.72 35.84-91.428571 81.188571-217.965714 204.8-217.965714 213.577143 0 5.12 37.302857 53.394286 82.651428 106.788572 44.617143 53.394286 90.697143 108.982857 100.937143 122.148571 17.554286 23.405714 20.48 24.868571 39.497143 16.091429 10.971429-5.12 35.108571-23.405714 53.394286-40.96 95.085714-88.502857 190.902857-172.617143 198.217143-172.617143 8.045714 0 59.245714 46.811429 59.245714 53.394286 0 5.12-24.868571 29.988571-54.857143 55.588571-16.091429 13.897143-62.171429 54.857143-102.4 92.16s-98.742857 89.234286-129.462857 115.565714l-56.32 49.005715-53.394286-60.708572z" fill="#C44243" p-id="34548">
 </path>
 <path d="M615.131429 852.114286c-12.434286-14.628571-22.674286-30.72-22.674286-35.84 0-5.851429 58.514286-62.171429 130.194286-125.805715 70.948571-63.634286 130.194286-117.028571 131.657142-119.954285 1.462857-4.388571-80.457143-103.131429-119.222857-143.36-12.434286-11.702857-35.108571-37.302857-51.2-56.32s-33.645714-34.377143-39.497143-34.377143c-8.777143 0-32.914286 19.748571-189.44 155.794286-33.645714 29.257143-64.365714 54.125714-68.022857 55.588571-10.24 2.925714-40.228571-25.6-57.051428-54.857143l-13.897143-23.405714 22.674286-21.211429c13.165714-12.434286 46.811429-40.228571 74.605714-62.902857 28.525714-22.674286 89.234286-72.411429 135.314286-110.445714 46.08-38.765714 87.771429-70.217143 92.16-70.217143s35.84 32.182857 70.217142 71.68c34.377143 38.765714 80.457143 89.234286 101.668572 111.177143 21.942857 22.674286 64.365714 68.754286 93.622857 102.4 29.988571 34.377143 59.245714 66.56 64.365714 71.68 13.897143 14.628571 5.12 27.062857-66.56 89.234286-65.828571 57.782857-162.377143 143.36-221.622857 198.217142-17.554286 16.091429-34.377143 28.525714-38.034286 28.525715s-16.822857-11.702857-29.257142-25.6z" fill="#16316F" p-id="34549">
 </path>
</svg>
