<svg class="icon" height="200" p-id="4365" t="1721138247068" version="1.1" viewBox="0 0 1024 1024" width="200" xmlns="http://www.w3.org/2000/svg">
 <path d="M887.845926 113.777778c2.844444 0 5.12 2.74963 6.162963 5.214815l0.568889 1.232592a10.808889 10.808889 0 0 1 0.663703 3.602963v455.111111a13.368889 13.368889 0 0 1-0.663703 3.887408c-0.948148 3.318519-3.697778 6.826667-6.826667 6.826666h-78.222222l-4.456296 0.758519a73.291852 73.291852 0 0 0-29.392593 11.662222l-24.841481 16.782222v77.368889l-11.377778-10.145185-66.275556-62.577778-1.611852-2.939259-4.171852-4.835556a75.851852 75.851852 0 0 0-43.33037-25.031111l-5.30963-1.042963H322.37037c-3.034074 0-5.688889-3.508148-6.731851-7.016296a20.859259 20.859259 0 0 1-0.663704-2.939259V124.017778a12.136296 12.136296 0 0 1 1.232592-5.12A7.774815 7.774815 0 0 1 322.37037 113.777778h565.475556m0-56.888889H322.37037a64.094815 64.094815 0 0 0-58.026666 38.684444 68.456296 68.456296 0 0 0-6.257778 28.444445v455.68a66.939259 66.939259 0 0 0 2.939259 18.962963A64.568889 64.568889 0 0 0 322.37037 646.447407h291.365926a18.962963 18.962963 0 0 1 10.903704 6.257778 37.925926 37.925926 0 0 0 7.49037 9.481482l67.887408 64.663703 16.402963 14.601482a52.622222 52.622222 0 0 0 42.856296 9.481481 62.482963 62.482963 0 0 0 40.011852-24.082963 38.968889 38.968889 0 0 0 8.059259-23.324444v-55.466667a16.023704 16.023704 0 0 1 6.447408-2.56h73.671111a64.758519 64.758519 0 0 0 61.534814-48.26074 67.982222 67.982222 0 0 0 2.844445-18.962963V123.828148a68.456296 68.456296 0 0 0-6.257778-28.444444A64.094815 64.094815 0 0 0 887.845926 56.888889z" fill="#0097FF" p-id="4366">
 </path>
 <path d="M700.017778 724.954074l3.413333 3.223704a65.422222 65.422222 0 0 0 12.894815 11.377778l-16.402963-14.601482zM701.62963 803.65037H404.954074l-5.30963 1.042963a75.851852 75.851852 0 0 0-43.235555 25.031111l-4.171852 4.835556-1.517037 2.939259-69.12 66.370371-2.085926 1.991111-1.896296 2.275555A7.585185 7.585185 0 0 1 274.962963 910.222222h-1.042963v-76.894815l-24.841481-16.877037a73.291852 73.291852 0 0 0-29.297778-11.662222l-4.456297-0.758518h-78.98074c-3.223704 0-5.878519-3.508148-7.111111-7.585186a11.282963 11.282963 0 0 1 0-2.275555V337.92a10.524444 10.524444 0 0 1 0.663703-3.508148l0.568889-1.232593a7.86963 7.86963 0 0 1 6.257778-5.12h64.663704v-56.888889h-65.232593a64.094815 64.094815 0 0 0-58.026667 38.684445 68.456296 68.456296 0 0 0-6.257777 28.444444v455.395556a67.982222 67.982222 0 0 0 2.844444 18.962963 64.758519 64.758519 0 0 0 61.534815 48.260741h73.671111a16.023704 16.023704 0 0 1 6.447407 2.56v55.466666a38.968889 38.968889 0 0 0 8.05926 23.324445 62.482963 62.482963 0 0 0 40.011852 24.082963 59.354074 59.354074 0 0 0 9.481481 1.042963 61.534815 61.534815 0 0 0 46.838519-22.281482l71.30074-67.982222a37.925926 37.925926 0 0 0 7.490371-9.481482 18.962963 18.962963 0 0 1 10.903703-6.257777H701.62963a61.914074 61.914074 0 0 0 43.804444-18.962963l-43.425185-38.684445zM507.922963 406.186667a58.026667 58.026667 0 0 1 0-116.053334 58.026667 58.026667 0 0 1 0 116.053334zM700.776296 406.186667a58.026667 58.026667 0 0 1 0-116.053334 58.026667 58.026667 0 0 1 0 116.053334z" fill="#0097FF" p-id="4367">
 </path>
</svg>
