<svg class="icon" height="200" p-id="30483" t="1721052130258" version="1.1" viewBox="0 0 1024 1024" width="200" xmlns="http://www.w3.org/2000/svg">
 <path d="M460.8 316.416h-93.184v50.176h86.016c6.144 0 11.264 1.024 14.336 4.096 3.072 3.072 5.12 6.144 5.12 11.264 0 5.12-2.048 8.192-5.12 11.264s-8.192 4.096-14.336 4.096h-86.016v58.368h97.28c6.144 0 11.264 1.024 14.336 4.096 3.072 3.072 5.12 7.168 5.12 12.288s-2.048 9.216-5.12 12.288c-3.072 3.072-8.192 4.096-14.336 4.096h-112.64c-9.216 0-15.36-2.048-19.456-6.144-4.096-4.096-6.144-10.24-6.144-19.456V310.272c0-6.144 1.024-11.264 3.072-14.336 2.048-4.096 4.096-6.144 8.192-8.192 4.096-2.048 8.192-3.072 14.336-3.072H460.8c6.144 0 11.264 1.024 14.336 4.096s5.12 7.168 5.12 11.264c0 5.12-2.048 9.216-5.12 11.264s-7.168 5.12-14.336 5.12zM571.392 306.176l79.872 120.832V305.152c0-8.192 2.048-14.336 5.12-17.408 3.072-4.096 8.192-6.144 13.312-6.144 6.144 0 10.24 2.048 14.336 6.144 3.072 4.096 5.12 10.24 5.12 17.408v161.792c0 18.432-7.168 26.624-22.528 26.624-4.096 0-7.168-1.024-10.24-2.048-3.072-1.024-6.144-3.072-8.192-5.12-3.072-2.048-5.12-5.12-7.168-8.192-2.048-3.072-4.096-6.144-7.168-9.216l-77.824-119.808v119.808c0 8.192-2.048 13.312-5.12 17.408s-8.192 6.144-14.336 6.144c-6.144 0-10.24-2.048-14.336-6.144-3.072-4.096-5.12-10.24-5.12-17.408V311.296c0-7.168 1.024-12.288 2.048-15.36 2.048-4.096 5.12-7.168 9.216-10.24 4.096-3.072 8.192-4.096 13.312-4.096 4.096 0 7.168 1.024 9.216 2.048 3.072 1.024 5.12 3.072 7.168 5.12 2.048 2.048 4.096 5.12 6.144 8.192 3.072 2.048 5.12 5.12 7.168 9.216zM423.936 84.992C450.56 69.632 481.28 61.44 512 61.44s61.44 8.192 88.064 23.552l10.24 6.144h122.88l-102.4-59.392C593.92 10.24 552.96 0 512 0s-81.92 10.24-118.784 31.744l-102.4 59.392h122.88l10.24-6.144zM99.328 649.216V374.784c0-55.296 25.6-107.52 68.608-140.288v-72.704l-11.264 6.144C82.944 210.944 37.888 289.792 37.888 374.784v273.408c0 86.016 45.056 163.84 118.784 206.848l11.264 6.144V788.48c-43.008-32.768-68.608-83.968-68.608-139.264zM600.064 939.008C573.44 954.368 542.72 962.56 512 962.56s-61.44-8.192-88.064-23.552l-10.24-6.144h-122.88l102.4 59.392C430.08 1013.76 471.04 1024 512 1024s81.92-10.24 118.784-31.744l102.4-59.392h-122.88l-10.24 6.144zM866.304 167.936l-11.264-6.144v72.704c43.008 33.792 68.608 84.992 68.608 140.288V650.24c2.048 55.296-23.552 106.496-68.608 139.264v72.704l11.264-6.144c75.776-43.008 121.856-121.856 118.784-206.848V374.784c1.024-84.992-44.032-163.84-118.784-206.848z" fill="#0075C7" p-id="30484">
 </path>
 <path d="M785.408 881.664H245.76c-14.336 0-25.6-11.264-25.6-25.6v-686.08c0-14.336 11.264-25.6 25.6-25.6h539.648c14.336 0 25.6 11.264 25.6 25.6s-11.264 25.6-25.6 25.6H271.36V829.44h488.448V171.008c0-14.336 11.264-25.6 25.6-25.6s25.6 11.264 25.6 25.6v685.056c0 13.312-11.264 25.6-25.6 25.6z" fill="#0075C7" p-id="30485">
 </path>
 <path d="M330.752 578.56h370.688v51.2H330.752zM330.752 684.032h370.688v51.2H330.752z" fill="#0075C7" p-id="30486">
 </path>
</svg>
