<svg class="icon" height="200" p-id="10694" t="1721215121435" version="1.1" viewBox="0 0 1024 1024" width="200" xmlns="http://www.w3.org/2000/svg">
 <path d="M832 226.928V864H192V128h552.048z" fill="#FFFFFF" p-id="10695">
 </path>
 <path d="M767.256 128L864 226.928V864H160V128h607.256z m-13.496 32H192v672h640V239.968L753.76 160z" fill="#4D5697" p-id="10696">
 </path>
 <path d="M384 608v-32h32V416h-64v32h-32V352h256v96h-32v-32h-64v160h32v32H384zM608 384h96v32H608zM608 512h96v-32H608zM320 704h384v-32H320zM608 608h96v-32H608z" fill="#FF8C84" p-id="10697">
 </path>
 <path d="M864 256H736V128z" fill="#4D5697" p-id="10698">
 </path>
</svg>
