<svg class="icon" height="200" p-id="4318" t="1730727719733" version="1.1" viewBox="0 0 1024 1024" width="200" xmlns="http://www.w3.org/2000/svg">
 <path d="M32.182857 512c0 264.777143 215.04 479.817143 479.817143 479.817143S991.817143 776.777143 991.817143 512 776.777143 32.182857 512 32.182857C247.222857 32.182857 33.645714 245.76 32.182857 509.074286v2.925714z" fill="#FFBB58" p-id="4319">
 </path>
 <path d="M100.937143 509.074286c-1.462857 226.742857 181.394286 409.6 408.137143 411.062857 226.742857 1.462857 409.6-181.394286 411.062857-408.137143C920.137143 286.72 738.742857 102.4 512 100.937143c-109.714286 0-213.577143 42.422857-291.108571 119.954286-76.068571 76.068571-119.954286 179.931429-119.954286 288.182857z" fill="#FFDFAF" p-id="4320">
 </path>
 <path d="M488.594286 289.645714h48.274285v54.125715H585.142857c10.24-16.091429 19.017143-33.645714 26.331429-51.2l45.348571 16.091428c-5.851429 13.165714-13.165714 24.868571-21.942857 35.108572H716.8v102.4h-43.885714v-62.902858H354.011429v62.902858H307.2v-102.4h86.308571c-7.314286-11.702857-14.628571-23.405714-24.868571-33.645715l42.422857-16.091428c11.702857 14.628571 21.942857 32.182857 29.257143 49.737143h46.811429l1.462857-54.125715z m49.737143 292.571429c-7.314286 55.588571-21.942857 90.697143-42.422858 109.714286-23.405714 23.405714-80.457143 38.034286-169.691428 45.348571L307.2 696.32c74.605714-2.925714 122.88-13.165714 147.748571-30.72 21.942857-16.091429 33.645714-45.348571 38.034286-86.308571l45.348572 2.925714z m128.731428-58.514286V658.285714h-45.348571v-93.622857H405.211429v98.011429h-45.348572v-138.971429h307.2zM386.194286 409.6h251.611428v95.085714H386.194286V409.6z m209.188571 61.44v-30.72H433.005714v30.72h162.377143z m-51.2 179.931429c58.514286 13.165714 117.028571 29.257143 172.617143 48.274285l-24.868571 39.497143c-54.125714-23.405714-111.177143-40.96-169.691429-54.125714l21.942857-33.645714z" fill="#FFAC33" p-id="4321">
 </path>
</svg>
