<svg class="icon" height="200" p-id="4629" t="1722434664501" version="1.1" viewBox="0 0 1024 1024" width="200" xmlns="http://www.w3.org/2000/svg">
 <path d="M512 0C794.768895 0 1023.996 229.227105 1023.996 511.996 1023.996 794.768895 794.768895 1023.996 512 1023.996S0 794.768895 0 511.996C0 229.227105 229.231105 0 512 0z" fill="#5DDDD3" p-id="4630">
 </path>
 <path d="M933.604353 802.518865C841.242714 936.304343 686.873317 1023.996 512 1023.996c-174.875317 0-329.238714-87.691657-421.604353-221.479135h843.208706v0.002z" fill="#15BDB1" p-id="4631">
 </path>
 <path d="M117.463541 437.614291h789.068918V802.516865H117.463541V437.614291zM506.538021 59.179769h7.79797v109.431572h-7.79797V59.179769z" fill="#FFFFFF" p-id="4632">
 </path>
 <path d="M591.789688 85.497666s-9.155964-20.46992-34.693864-13.255948c-25.5379 7.211972-42.759833-12.87395-42.759833-12.87395v53.027793s21.115918 15.40194 40.223843 8.965965c19.105925-6.433975 42.159835 11.887954 42.159835 11.887953l-4.929981-47.751813zM108.845575 437.614291h806.30685v29.855883H108.845575v-29.855883z" fill="#FF5B61" p-id="4633">
 </path>
 <path d="M725.451166 273.170933v529.347932H295.418846V273.170933l215.01516-78.259694 215.01716 78.259694z" fill="#FFFFFF" p-id="4634">
 </path>
 <path d="M276.092922 245.63304l234.343084-85.297666 234.345085 85.297666v34.575865L510.434006 194.911239l-234.343084 85.297666v-34.575865z" fill="#FF5B61" p-id="4635">
 </path>
 <path d="M821.79279 802.518865l-96.341624-335.048691v335.048691h96.341624zM283.800891 467.470174h11.617955V802.516865h-11.617955V467.470174z" fill="#ECF0F1" p-id="4636">
 </path>
 <path d="M149.857415 487.622095h42.515834v76.255702H149.857415v-76.255702z" fill="#FFFFFF" p-id="4637">
 </path>
 <path d="M152.235405 489.998086h37.755853v71.499721H152.235405V489.998086z" fill="#20D0C2" p-id="4638">
 </path>
 <path d="M215.663158 487.622095h42.515833v76.255702h-42.515833v-76.255702z" fill="#FFFFFF" p-id="4639">
 </path>
 <path d="M218.041148 489.998086h37.755853v71.499721h-37.755853V489.998086z" fill="#20D0C2" p-id="4640">
 </path>
 <path d="M149.857415 591.919688h42.515834v76.257702H149.857415v-76.257702z" fill="#FFFFFF" p-id="4641">
 </path>
 <path d="M152.235405 594.299679h37.755853v71.49972H152.235405v-71.49972z" fill="#20D0C2" p-id="4642">
 </path>
 <path d="M215.663158 591.919688h42.515833v76.257702h-42.515833v-76.257702z" fill="#FFFFFF" p-id="4643">
 </path>
 <path d="M218.041148 594.299679h37.755853v71.49972h-37.755853v-71.49972z" fill="#20D0C2" p-id="4644">
 </path>
 <path d="M149.857415 696.21528h42.515834v76.257703H149.857415v-76.257703z" fill="#FFFFFF" p-id="4645">
 </path>
 <path d="M152.235405 698.595271h37.755853v71.497721H152.235405v-71.497721z" fill="#20D0C2" p-id="4646">
 </path>
 <path d="M215.663158 696.21528h42.515833v76.257703h-42.515833v-76.257703z" fill="#FFFFFF" p-id="4647">
 </path>
 <path d="M218.041148 698.595271h37.755853v71.497721h-37.755853v-71.497721z" fill="#20D0C2" p-id="4648">
 </path>
 <path d="M373.080543 290.192866h44.901824v80.539686h-44.901824v-80.539686z" fill="#FFFFFF" p-id="4649">
 </path>
 <path d="M375.590533 292.702857h39.877844v75.517705h-39.877844v-75.517705z" fill="#20D0C2" p-id="4650">
 </path>
 <path d="M442.580271 290.192866h44.901825v80.539686h-44.901825v-80.539686z" fill="#FFFFFF" p-id="4651">
 </path>
 <path d="M445.092261 292.702857h39.877845v75.517705h-39.877845v-75.517705z" fill="#20D0C2" p-id="4652">
 </path>
 <path d="M373.080543 400.348436h44.901824v80.543686h-44.901824v-80.543686z" fill="#FFFFFF" p-id="4653">
 </path>
 <path d="M375.590533 402.862426h39.877844v75.515705h-39.877844v-75.515705z" fill="#20D0C2" p-id="4654">
 </path>
 <path d="M442.580271 400.348436h44.901825v80.543686h-44.901825v-80.543686z" fill="#FFFFFF" p-id="4655">
 </path>
 <path d="M445.092261 402.862426h39.877845v75.515705h-39.877845v-75.515705z" fill="#20D0C2" p-id="4656">
 </path>
 <path d="M373.080543 510.508006h44.901824v80.541685h-44.901824v-80.541685z" fill="#FFFFFF" p-id="4657">
 </path>
 <path d="M375.590533 513.017996h39.877844v75.517705h-39.877844V513.017996z" fill="#20D0C2" p-id="4658">
 </path>
 <path d="M442.580271 510.508006h44.901825v80.541685h-44.901825v-80.541685z" fill="#FFFFFF" p-id="4659">
 </path>
 <path d="M445.092261 513.017996h39.877845v75.517705h-39.877845V513.017996z" fill="#20D0C2" p-id="4660">
 </path>
 <path d="M533.387916 290.192866h44.905825v80.539686h-44.905825v-80.539686z" fill="#FFFFFF" p-id="4661">
 </path>
 <path d="M535.901907 292.702857h39.877844v75.517705h-39.877844v-75.517705z" fill="#20D0C2" p-id="4662">
 </path>
 <path d="M602.889645 290.192866h44.901825v80.539686h-44.901825v-80.539686z" fill="#FFFFFF" p-id="4663">
 </path>
 <path d="M605.403635 292.702857h39.877844v75.517705h-39.877844v-75.517705z" fill="#20D0C2" p-id="4664">
 </path>
 <path d="M533.387916 400.348436h44.905825v80.543686h-44.905825v-80.543686z" fill="#FFFFFF" p-id="4665">
 </path>
 <path d="M535.901907 402.862426h39.877844v75.515705h-39.877844v-75.515705z" fill="#20D0C2" p-id="4666">
 </path>
 <path d="M602.889645 400.348436h44.901825v80.543686h-44.901825v-80.543686z" fill="#FFFFFF" p-id="4667">
 </path>
 <path d="M605.403635 402.862426h39.877844v75.515705h-39.877844v-75.515705z" fill="#20D0C2" p-id="4668">
 </path>
 <path d="M533.387916 510.508006h44.905825v80.541685h-44.905825v-80.541685z" fill="#FFFFFF" p-id="4669">
 </path>
 <path d="M535.901907 513.017996h39.877844v75.517705h-39.877844V513.017996z" fill="#20D0C2" p-id="4670">
 </path>
 <path d="M602.889645 510.508006h44.901825v80.541685h-44.901825v-80.541685z" fill="#FFFFFF" p-id="4671">
 </path>
 <path d="M605.403635 513.017996h39.877844v75.517705h-39.877844V513.017996z" fill="#20D0C2" p-id="4672">
 </path>
 <path d="M373.080543 620.459576h44.901824v80.541686h-44.901824v-80.541686z" fill="#FFFFFF" p-id="4673">
 </path>
 <path d="M375.590533 622.971567h39.877844v75.519705h-39.877844v-75.519705z" fill="#20D0C2" p-id="4674">
 </path>
 <path d="M442.580271 620.459576h44.901825v80.541686h-44.901825v-80.541686z" fill="#FFFFFF" p-id="4675">
 </path>
 <path d="M445.092261 622.971567h39.877845v75.519705h-39.877845v-75.519705z" fill="#20D0C2" p-id="4676">
 </path>
 <path d="M533.387916 620.459576h44.905825v80.541686h-44.905825v-80.541686z" fill="#FFFFFF" p-id="4677">
 </path>
 <path d="M535.901907 622.971567h39.877844v75.519705h-39.877844v-75.519705z" fill="#20D0C2" p-id="4678">
 </path>
 <path d="M602.889645 620.459576h44.901825v80.541686h-44.901825v-80.541686z" fill="#FFFFFF" p-id="4679">
 </path>
 <path d="M605.403635 622.971567h39.877844v75.519705h-39.877844v-75.519705z" fill="#20D0C2" p-id="4680">
 </path>
 <path d="M767.423002 487.622095h42.515834v76.255702h-42.515834v-76.255702z" fill="#FFFFFF" p-id="4681">
 </path>
 <path d="M769.800993 489.998086h37.755852v71.499721h-37.755852V489.998086z" fill="#20D0C2" p-id="4682">
 </path>
 <path d="M833.222745 487.622095h42.515834v76.255702h-42.515834v-76.255702z" fill="#FFFFFF" p-id="4683">
 </path>
 <path d="M835.602736 489.998086h37.755852v71.499721h-37.755852V489.998086z" fill="#20D0C2" p-id="4684">
 </path>
 <path d="M767.423002 591.919688h42.515834v76.257702h-42.515834v-76.257702z" fill="#FFFFFF" p-id="4685">
 </path>
 <path d="M769.800993 594.299679h37.755852v71.49972h-37.755852v-71.49972z" fill="#20D0C2" p-id="4686">
 </path>
 <path d="M833.222745 591.919688h42.515834v76.257702h-42.515834v-76.257702z" fill="#FFFFFF" p-id="4687">
 </path>
 <path d="M835.602736 594.299679h37.755852v71.49972h-37.755852v-71.49972z" fill="#20D0C2" p-id="4688">
 </path>
 <path d="M767.423002 696.21528h42.515834v76.257703h-42.515834v-76.257703z" fill="#FFFFFF" p-id="4689">
 </path>
 <path d="M769.800993 698.595271h37.755852v71.497721h-37.755852v-71.497721z" fill="#20D0C2" p-id="4690">
 </path>
 <path d="M833.222745 696.21528h42.515834v76.257703h-42.515834v-76.257703z" fill="#FFFFFF" p-id="4691">
 </path>
 <path d="M835.602736 698.595271h37.755852v71.497721h-37.755852v-71.497721zM307.1008 788.982918h65.481745l-32.737873-110.541568-32.743872 110.541568z" fill="#20D0C2" p-id="4692">
 </path>
 <path d="M339.844672 788.982918h32.737873l-32.737873-110.541568v110.541568z" fill="#15BDB1" p-id="4693">
 </path>
 <path d="M337.99868 788.982918h3.687985l1.563994 36.701857h-7.293971L337.99868 788.982918z" fill="#FBB429" p-id="4694">
 </path>
 <path d="M651.419455 788.982918H716.8992l-32.737873-110.541568-32.741872 110.541568z" fill="#20D0C2" p-id="4695">
 </path>
 <path d="M684.159328 788.982918h32.737872l-32.737872-110.541568v110.541568z" fill="#15BDB1" p-id="4696">
 </path>
 <path d="M682.315335 788.982918h3.683985l1.563994 36.701857h-7.295971l2.047992-36.701857z" fill="#FBB429" p-id="4697">
 </path>
 <path d="M531.201925 802.518865l26.507896 219.449143a517.945977 517.945977 0 0 1-45.709821 2.029992 517.797977 517.797977 0 0 1-45.707821-2.029992L492.798075 802.518865h38.40385z" fill="#FFFFFF" p-id="4698">
 </path>
 <path d="M495.190066 802.518865h33.621868l21.097918 220.08114c-12.517951 0.915996-25.159902 1.397995-37.907852 1.397995-12.75395 0-25.389901-0.483998-37.907852-1.397995l21.095918-220.08114z" fill="#807D7D" p-id="4699">
 </path>
 <path d="M509.646009 1009.514057h4.711982v14.475943l-2.357991 0.006-2.353991-0.008v-14.473943z m0-188.601264h4.711982v23.571908h-4.711982v-23.571908z m0 37.717853h4.711982v23.577908h-4.711982v-23.577908z m0 37.721853h4.711982v23.571908h-4.711982v-23.571908z m0 37.721852h4.711982v23.571908h-4.711982v-23.571908z m0 37.717853h4.711982v23.577908h-4.711982v-23.577908z" fill="#D0D1D4" p-id="4700">
 </path>
 <path d="M481.120121 717.877196h58.631771c5.489979 0 9.979961 4.485982 9.979961 9.975961v74.665708h-78.589693v-74.665708c-0.002-5.489979 4.487982-9.975961 9.977961-9.975961z" fill="#ECF0F1" p-id="4701">
 </path>
</svg>
