<svg class="icon" height="200" p-id="40847" t="1721134024861" version="1.1" viewBox="0 0 1024 1024" width="200" xmlns="http://www.w3.org/2000/svg">
 <path d="M457.686917 8.966661h125.759175C1008.403303 142.725783 1029.523164 172.805586 931.923805 503.363417A149.759017 149.759017 0 0 1 850.964336 544.00315c-187.838767-45.7597-348.157715-159.99895-533.116501-210.878616a176.318843 176.318843 0 0 1-35.199769-127.99916C295.447982 99.526067 384.0874 59.846327 457.686917 8.966661z" fill="#7831FE" p-id="40848">
 </path>
 <path d="M870.16421 512.00336H864.08425c92.479393-8.639943 92.159395 70.07954 118.719221 123.519189 42.879719 310.077965-222.078543 296.958051-399.997375 375.357537H457.686917c-102.399328-55.999633-148.479026-134.07912-99.519347-249.91836 137.599097-151.359007 297.918045-255.678322 511.99664-248.958366z" fill="#33CB1F" p-id="40849">
 </path>
 <path d="M949.203691 640.00252l-84.479445-127.99916C1096.722723 162.885651 695.125359 166.08563 583.446092 8.966661 1024.0832 8.966661 1024.0832 8.966661 1024.0832 448.00378v187.518769c-22.399853 38.719746-47.359689 40.319735-74.879509 4.479971z" fill="#F8F5FE" p-id="40850">
 </path>
 <path d="M396.567318 763.521709c-54.719641 100.479341 11.519924 170.878879 61.119599 245.43839a630.395863 630.395863 0 0 0-125.439177 0C64.0895 1063.999738-39.269822 960.00042 17.049809 696.32215a97.919357 97.919357 0 0 1 68.159552-31.99979c88.639418 21.119861 178.558828 11.199927 268.478239 8.959942 38.719746 18.559878 69.759542 40.959731 42.879718 90.239407z" fill="#F1F9F0" p-id="40851">
 </path>
 <path d="M457.686917 8.966661l-120.31921 230.07849C252.568263 274.564918 187.608689 352.00441 86.809351 355.204389A103.039324 103.039324 0 0 1 17.049809 320.00462C-78.629563-120.31249 250.328278 28.806531 457.686917 8.966661z" fill="#F6F3FB" p-id="40852">
 </path>
 <path d="M949.203691 640.00252l74.879509-6.07996c0 375.037539 0 375.037539-440.637108 375.037539 104.959311-140.15908 365.437602-128.639156 365.757599-368.957579z" fill="#F4FCF3" p-id="40853">
 </path>
 <path d="M17.049809 320.00462a366.077598 366.077598 0 0 1 55.999632 0c127.99916 127.99916 127.99916 253.438337 0 379.837507h-28.479813l-27.519819-2.879981z" fill="#C8C8C8" p-id="40854">
 </path>
 <path d="M396.567318 763.521709l-57.599622-67.199559C195.928635 551.043104 197.208626 404.164068 334.487726 256.00504c236.478448-35.839765 369.597575 141.119074 535.676484 255.99832-149.119021 98.559353-268.798236 253.758335-473.596892 251.518349z" fill="#F8F9FA" p-id="40855">
 </path>
 <path d="M334.487726 256.00504c-15.359899 146.879036-58.559616 294.398068 4.47997 440.31711-86.719431 237.438442-176.638841 139.519084-266.558251 2.559984V319.044626c52.159658-145.919042 149.439019-143.039061 264.958262-80.319473z" fill="#222222" p-id="40856">
 </path>
</svg>
