<svg class="icon" height="200" p-id="19574" t="1721216675281" version="1.1" viewBox="0 0 1024 1024" width="200" xmlns="http://www.w3.org/2000/svg">
 <path d="M125.754386 817.403509c0-41.319298 50.301754-154.498246 86.231579-194.021053 16.168421-19.761404 88.02807-62.877193 156.294737-97.010526 199.410526-98.807018 278.45614-195.817544 278.45614-350.31579 0-88.02807 138.329825-154.498246 215.578947-104.196491 21.557895 14.37193 19.761404 17.964912-14.371929 17.964912-61.080702 0-88.02807 71.859649-61.080702 172.463158 34.133333 127.550877 26.947368 177.852632-32.336842 237.136842-52.098246 52.098246-77.249123 61.080702-391.635088 131.14386-62.877193 12.575439-114.975439 39.522807-156.294737 79.045614-66.470175 61.080702-91.621053 123.957895-30.540351 79.045614 25.150877-19.761404 23.354386-17.964912-3.592982 16.168421-41.319298 46.708772-46.708772 48.505263-46.708772 12.575439z" fill="#E10C18" p-id="19575">
 </path>
 <path d="M364.687719 957.529825c-55.691228-44.912281-80.842105-120.364912-59.28421-176.056141 23.354386-59.284211-8.982456-59.284211-97.010527 0l-64.673684 43.11579 28.74386-44.912281c43.115789-64.673684 138.329825-107.789474 319.775438-141.922807 159.887719-28.74386 242.526316-61.080702 303.607018-113.178947 37.726316-34.133333 39.522807-17.964912 3.592982 59.28421-30.540351 61.080702-75.452632 89.824561-176.05614 107.789474-61.080702 12.575439-62.877193 12.575439-37.726316 59.28421 14.37193 26.947368 25.150877 61.080702 25.150878 75.452632 0 16.168421-10.778947 8.982456-23.354386-16.168421-34.133333-68.266667-77.249123-88.02807-113.178948-52.098246-43.115789 43.115789-19.761404 93.417544 37.726316 79.045614 37.726316-8.982456 44.912281-5.389474 44.912281 30.540351 0 95.214035-116.77193 150.905263-192.224562 89.824562z" fill="#50585B" p-id="19576">
 </path>
</svg>
