<?xml version="1.0" standalone="no"?><!DOCTYPE svg PUBLIC "-//W3C//DTD SVG 1.1//EN" "http://www.w3.org/Graphics/SVG/1.1/DTD/svg11.dtd"><svg t="1740826079930" class="icon" viewBox="0 0 1024 1024" version="1.1" xmlns="http://www.w3.org/2000/svg" p-id="9416" xmlns:xlink="http://www.w3.org/1999/xlink" width="200" height="200"><path d="M373.76 874.794667l50.218667-701.205334 42.176 2.197334-50.218667 700.949333-42.176-1.941333z m552.469333-583.445334c-43.861333-72.96-155.349333-106.453333-287.210666-97.28 1.365333 6.016 1.962667 12.096 1.962666 18.282667 83.242667 10.602667 149.269333 42.709333 180.650667 94.848 62.442667 103.637333-33.152 250.325333-215.530667 345.237333L536.384 146.282667l-41.941333 4.138666 99.968 727.296 41.941333-4.138666-26.581333-193.109334a725.76 725.76 0 0 0 42.901333-16.085333c219.605333-91.818667 342.293333-258.901333 273.557333-373.034667z m-727.530666 122.88l11.456-10.965333-17.536-0.981333-9.024-12.437334-6.336 13.653334-16.832 3.413333 13.418666 9.024-1.472 14.634667 14.634667-7.808 16.085333 5.610666-4.394666-14.144z m121.173333-121.664l-7.786667 16.341334-20.48 4.138666 16.32 10.986667-1.706666 17.557333 17.813333-9.514666 19.242667 6.826666-5.12-17.066666 13.653333-13.162667-20.949333-0.981333-10.986667-15.125334z m-37.781333 163.84l-15.125334 32.682667-40.96 8.042667 32.426667 22.186666-3.413333 34.858667 35.349333-19.008 38.528 13.653333-10.730667-33.898666 27.562667-26.325334-41.941333-2.197333-21.696-29.994667z m-146.538667 122.410667l-17.557333-23.893333-12.181334 26.069333-32.661333 6.336 26.069333 17.813333-2.922666 28.032 28.288-15.125333 30.954666 10.730667-8.533333-27.050667 21.952-21.205333-33.408-1.706667z m152.64 115.306667l-25.130667-34.368-17.536 37.546666-46.826666 9.024 37.312 25.344-3.904 40 40.469333-21.717333 44.373333 15.616-12.181333-38.762667 31.445333-30.485333-48.021333-2.197333z" fill="#005BFF" p-id="9417"></path><path d="M536.384 146.282667l-41.941333 4.138666 99.968 727.296 41.941333-4.138666-26.581333-193.109334-3.669334-28.032-69.717333-506.154666z" fill="#06F3FF" p-id="9418"></path></svg>