<?xml version="1.0" standalone="no"?><!DOCTYPE svg PUBLIC "-//W3C//DTD SVG 1.1//EN" "http://www.w3.org/Graphics/SVG/1.1/DTD/svg11.dtd"><svg t="1740825974068" class="icon" viewBox="0 0 1024 1024" version="1.1" xmlns="http://www.w3.org/2000/svg" p-id="4093" xmlns:xlink="http://www.w3.org/1999/xlink" width="200" height="200"><path d="M299.574 900.63a90265.402 90265.402 0 0 1-86.604-49.021c-2.45-1.635-3.268-90.418-3.268-389.175 0-367.387 0.272-386.723 4.902-384.817 6.264 2.451 78.979 28.596 87.694 31.32 16.068 5.174 76.528 27.233 78.979 28.595 1.906 1.09 2.723 108.936 2.723 306.383 0 271.251 0.545 304.749 4.085 303.387 7.626-2.996 231.49-132.085 235.302-135.898 2.996-2.995 1.362-4.63-10.893-10.349-28.051-13.072-96.409-45.48-100.222-47.66-2.178-1.361-19.608-41.395-38.672-89.327-19.336-47.66-36.221-89.055-37.855-91.779-1.634-2.995-2.451-5.719-1.634-6.536 0.544-0.817 11.438 2.451 23.966 6.809 12.527 4.63 37.31 13.344 55.285 19.608s42.485 14.707 54.468 19.064 36.493 12.8 54.468 19.064 42.485 14.706 54.468 19.064 36.494 12.8 54.468 19.064 42.485 14.706 54.468 19.063c11.983 4.085 24.51 8.443 28.051 9.532l5.992 1.634v197.992l-56.375 32.68c-64.272 36.767-177.838 102.4-190.093 109.482-4.358 2.723-36.222 20.97-70.809 40.85-73.532 42.486-73.26 42.213-98.315 56.92-10.621 5.991-19.88 11.166-20.425 10.893-0.545 0-38.4-21.242-84.154-46.842z" fill="#0B8383" p-id="4094"></path></svg>