<?xml version="1.0" standalone="no"?><!DOCTYPE svg PUBLIC "-//W3C//DTD SVG 1.1//EN" "http://www.w3.org/Graphics/SVG/1.1/DTD/svg11.dtd"><svg t="1742269931584" class="icon" viewBox="0 0 1024 1024" version="1.1" xmlns="http://www.w3.org/2000/svg" p-id="5872" xmlns:xlink="http://www.w3.org/1999/xlink" width="24" height="24"><path d="M654.5408 212.5824H313.6512a52.8384 52.8384 0 0 1-52.8384-52.8384V69.9392a52.8384 52.8384 0 0 1 52.8384-52.8384h340.8896a52.8384 52.8384 0 0 1 52.8384 52.8384v89.8048a52.8384 52.8384 0 0 1-52.8384 52.8384z" fill="#d4237a" p-id="5873"></path><path d="M484.0448 791.6544c0-26.0096 3.7888-51.0976 10.8544-74.8544H294.6048c-28.4672 0-51.5072-23.04-51.5072-51.5072s23.04-51.5072 51.5072-51.5072H552.96c48.3328-53.0432 117.8624-86.2208 195.2768-86.2208 43.3152 0 84.2752 10.5472 120.32 28.9792V200.704c0-60.5184-49.0496-109.6704-109.6704-109.6704h-2.4576v71.3728a95.1296 95.1296 0 0 1-95.1296 95.1296H306.8928a95.1296 95.1296 0 0 1-95.1296-95.1296V91.0336h-2.4576c-60.5184 0-109.6704 49.0496-109.6704 109.6704v642.1504c0 60.5184 49.0496 109.6704 109.6704 109.6704h329.5232a262.63552 262.63552 0 0 1-54.784-160.8704z m-189.44-402.0224h385.8432c28.4672 0 51.5072 23.04 51.5072 51.5072s-23.04 51.5072-51.5072 51.5072H294.6048c-28.4672 0-51.5072-23.04-51.5072-51.5072s23.04-51.5072 51.5072-51.5072z" fill="#d4237a" p-id="5874"></path><path d="M748.2368 576.4096c-118.8864 0-215.2448 96.3584-215.2448 215.2448s96.3584 215.2448 215.2448 215.2448 215.2448-96.3584 215.2448-215.2448c0.1024-118.8864-96.3584-215.2448-215.2448-215.2448z m110.2848 195.4816l-37.5808 36.5568c-3.7888 3.6864-5.5296 8.9088-4.608 14.1312l8.9088 51.712c2.2528 13.0048-11.4688 23.04-23.1424 16.7936l-46.3872-24.3712c-4.608-2.4576-10.24-2.4576-14.848 0l-46.3872 24.3712c-11.6736 6.144-25.3952-3.7888-23.1424-16.7936l8.9088-51.712c0.9216-5.2224-0.8192-10.4448-4.608-14.1312l-37.5808-36.5568c-9.5232-9.216-4.1984-25.2928 8.8064-27.2384l51.9168-7.5776c5.2224-0.7168 9.728-3.9936 11.9808-8.704l23.2448-47.0016c5.8368-11.8784 22.7328-11.8784 28.672 0l23.2448 47.0016c2.3552 4.7104 6.8608 7.9872 11.9808 8.704l51.9168 7.5776c13.0048 1.9456 18.2272 18.0224 8.704 27.2384z" fill="#d4237a" p-id="5875"></path></svg>