<?xml version="1.0" standalone="no"?><!DOCTYPE svg PUBLIC "-//W3C//DTD SVG 1.1//EN" "http://www.w3.org/Graphics/SVG/1.1/DTD/svg11.dtd"><svg t="1740825998161" class="icon" viewBox="0 0 1024 1024" version="1.1" xmlns="http://www.w3.org/2000/svg" p-id="5196" xmlns:xlink="http://www.w3.org/1999/xlink" width="200" height="200"><path d="M1023.961089 521.235105a593.897432 593.897432 0 0 0-9.010857-103.624862h-492.525284v196.190945h282.10128a236.432616 236.432616 0 0 1-104.341635 154.822916V896.004864h168.339203C967.131249 807.329833 1023.961089 676.262814 1023.961089 521.235105z" fill="#4285F4" p-id="5197"></path><path d="M522.527344 1018.982591c140.897046 0 259.574136-45.054288 346.098848-122.875331L700.389385 768.7265c-46.897418 30.923625-107.10633 48.638152-177.759645 48.638152a310.055418 310.055418 0 0 1-179.909963-58.263386A313.332093 313.332093 0 0 1 229.367284 607.043044H55.805879V738.314856c88.777426 172.025463 269.301767 280.667735 466.721465 280.667735z" fill="#34A853" p-id="5198"></path><path d="M229.162492 607.043044a298.177469 298.177469 0 0 1 0-194.962191V280.809041H55.601087a497.952278 497.952278 0 0 0 0 457.505815l173.561405-131.271812z" fill="#FBBC04" p-id="5199"></path><path d="M522.527344 201.759245a287.528274 287.528274 0 0 1 200.286789 76.387497l149.088735-145.402474A508.908661 508.908661 0 0 0 522.527344 0.038911C325.107646 0.038911 144.378514 108.681182 55.805879 280.809041L229.367284 412.080853a313.332093 313.332093 0 0 1 113.250097-152.160618 310.055418 310.055418 0 0 1 179.909963-58.16099z" fill="#EA4335" p-id="5200"></path></svg>