<?xml version="1.0" standalone="no"?><!DOCTYPE svg PUBLIC "-//W3C//DTD SVG 1.1//EN" "http://www.w3.org/Graphics/SVG/1.1/DTD/svg11.dtd"><svg t="1741189384427" class="icon" viewBox="0 0 1024 1024" version="1.1" xmlns="http://www.w3.org/2000/svg" p-id="5552" xmlns:xlink="http://www.w3.org/1999/xlink" width="24" height="24"><path d="M670.107 413l41.742 70.562L758.295 413H870L758.295 565.884 870 727H758.295l-46.446-98.199L651.293 727H539l112.293-161.116L561.341 413h108.766z m77.882-114c67.734 0 138.404 28.62 212.011 85.858-129.595-63.904-257.427-63.904-383.498 0A1278.414 1278.414 0 0 0 519 415.855V724h-91V473.58c-35.895 25.183-69.692 52.027-101.39 80.532L387 724H284.014L256.54 623.172c-0.843 0.26-1.679 0.514-2.508 0.766L191.562 724H64l100.645-321h108.252l32.382 91.096C485.06 352.219 651.336 299 747.99 299z" p-id="5553"></path></svg>