<?xml version="1.0" standalone="no"?><!DOCTYPE svg PUBLIC "-//W3C//DTD SVG 1.1//EN" "http://www.w3.org/Graphics/SVG/1.1/DTD/svg11.dtd"><svg t="1740826092778" class="icon" viewBox="0 0 1024 1024" version="1.1" xmlns="http://www.w3.org/2000/svg" p-id="10437" xmlns:xlink="http://www.w3.org/1999/xlink" width="200" height="200"><path d="M600.177778 443.733333h179.2c25.6 0 45.511111 19.911111 45.511111 45.511111v290.133334c0 25.6-19.911111 45.511111-45.511111 45.511111H489.244444c-25.6 0-45.511111-19.911111-45.511111-45.511111v-179.2h88.177778c36.977778 0 68.266667-28.444444 68.266667-65.422222v-91.022223zM199.111111 244.622222C199.111111 219.022222 219.022222 199.111111 244.622222 199.111111h290.133334c25.6 0 45.511111 19.911111 45.511111 45.511111v290.133334c0 25.6-19.911111 45.511111-45.511111 45.511111H244.622222c-25.6 0-45.511111-19.911111-45.511111-45.511111V244.622222z m88.177778 193.422222h31.288889v-17.066666h48.355555v82.488889h34.133334v-82.488889h48.355555v14.222222h36.977778v-110.933333h-82.488889v-22.755556c0-5.688889 0-11.377778 2.844445-17.066667v-2.844444s-2.844444 0-5.688889-2.844444H369.777778v45.511111h-79.644445v113.777777z m34.133333-85.333333H369.777778v42.666667h-48.355556v-42.666667z m128 39.822222h-48.355555v-42.666666h48.355555v42.666666z m142.222222 341.333334l14.222223-36.977778h71.111111l14.222222 36.977778h36.977778l-62.577778-179.2h-45.511111l-65.422222 176.355555 36.977777 2.844445z m25.6-65.422223l25.6-76.8 22.755556 76.8h-48.355556z m162.133334-290.133333h-45.511111c0-48.355556-39.822222-88.177778-88.177778-88.177778V244.622222c73.955556 0 133.688889 59.733333 133.688889 133.688889zM244.622222 645.688889h45.511111c0 48.355556 39.822222 88.177778 88.177778 88.177778v45.511111c-73.955556 0-133.688889-59.733333-133.688889-133.688889z" fill="#1478F4" p-id="10438"></path></svg>