<svg class="icon" height="200" p-id="7832" t="1741790394570" version="1.1" viewBox="0 0 1024 1024" width="200" xmlns="http://www.w3.org/2000/svg">
 <path d="M827.733333 213.333333H405.333333v768h576V366.933333L827.733333 213.333333z" fill="#76362B" p-id="7833">
 </path>
 <path d="M768 384v490.666667H256V149.333333h277.333333V85.333333H192v853.333334h640V384h-64z" fill="#231815" p-id="7834">
 </path>
 <path d="M533.333333 405.333333V170.666667H277.333333v704h490.666667V405.333333H533.333333z" fill="#EC6B56" p-id="7835">
 </path>
 <path d="M618.666667 256h64v64h-64z" fill="#FFB1A9" p-id="7836">
 </path>
 <path d="M597.333333 239.786667L677.546667 320H597.333333v-80.213333M533.333333 85.333333v298.666667h298.666667L533.333333 85.333333zM47.36 322.56h426.666667v170.666667h-426.666667z" fill="#231815" p-id="7837">
 </path>
 <path d="M93.866667 343.893333h53.12c30.933333 0 46.506667 13.013333 46.506666 39.253334s-15.573333 39.68-46.72 39.68H114.986667v49.066666h-20.906667v-128z m20.906666 17.92v43.093334h30.506667c9.173333 0 16-1.706667 20.48-5.12 4.266667-3.413333 6.4-8.96 6.4-16.64s-2.133333-13.013333-6.613333-16.213334c-4.266667-3.413333-10.88-5.12-20.266667-5.12H114.773333zM211.2 343.893333h46.72c20.693333 0 36.48 5.76 47.146667 17.28 10.24 10.88 15.36 26.453333 15.36 46.72s-5.12 35.84-15.36 46.72c-10.666667 11.52-26.453333 17.28-47.146667 17.28H211.2v-128z m20.906667 17.92v92.16h21.973333c16 0 27.52-3.626667 34.986667-11.093333 7.253333-7.466667 10.666667-19.2 10.666666-34.986667s-3.626667-27.946667-10.666666-35.2c-7.253333-7.253333-18.986667-10.88-34.986667-10.88h-21.973333zM340.266667 343.893333h87.253333v17.92h-66.346667v35.413334h62.506667v17.92h-62.506667v56.746666h-20.906666v-128z" fill="#FFFFFF" p-id="7838">
 </path>
 <path d="M358.613333 584.533333h89.6c-5.333333-10.026667-12.373333-19.84-20.906666-29.44l23.68-8.533333c8.106667 10.666667 15.573333 23.253333 22.4 37.973333h85.546666v23.466667h-34.133333c-10.88 33.706667-26.666667 62.08-47.573333 85.12 22.826667 18.346667 51.84 33.706667 86.613333 46.506667l-13.226667 20.053333c-36.266667-13.653333-66.346667-30.293333-90.24-50.133333-25.386667 22.4-56.533333 38.826667-93.44 49.28l-12.586666-20.906667c36.266667-9.386667 65.92-23.893333 89.386666-43.733333a203.264 203.264 0 0 1-50.986666-86.4H358.4v-23.466667z m56.96 23.466667a180.053333 180.053333 0 0 0 45.013334 70.4c17.706667-19.626667 31.146667-43.093333 39.893333-70.4h-84.906667z" p-id="7839">
 </path>
 <path d="M572.373333 632.746667h31.786667l65.28 170.666666h-29.866667l-15.573333-42.88H552.533333l-15.573333 42.88h-29.866667l65.28-170.666666z m-11.52 104.96h54.826667l-26.88-74.88h-0.853333l-27.093334 74.88z" fill="#FFFFFF" p-id="7840">
 </path>
</svg>
