<svg class="icon" height="200" p-id="3338" t="1721137864689" version="1.1" viewBox="0 0 1024 1024" width="200" xmlns="http://www.w3.org/2000/svg">
 <path d="M113.664 0h568.832l284.672 284.16v683.008c0 31.232-25.6 56.832-56.832 56.832H113.664c-31.232 0-56.832-25.6-56.832-56.832V56.832C56.832 25.6 82.432 0 113.664 0z" fill="#13A9FC" p-id="3339">
 </path>
 <path d="M682.496 0l284.672 284.672h-227.328c-28.672-5.632-51.2-28.16-56.832-56.832V0z" fill="#65C8FF" p-id="3340">
 </path>
 <path d="M319.68256 771.30752c-23.552 11.264-49.664 16.896-76.288 15.872-35.328 1.536-69.632-12.288-94.72-37.376-24.576-27.136-36.864-62.976-35.328-99.328-1.536-39.424 12.8-78.336 39.936-107.008 26.624-27.136 62.976-41.472 100.864-40.448 22.528-0.512 44.544 3.072 65.024 11.264v37.376c-19.968-10.752-41.984-16.384-65.024-16.384-28.16-1.024-55.296 10.24-74.752 30.72-19.968 22.528-30.72 52.224-29.184 82.944-1.536 28.672 8.192 56.832 27.136 78.336 18.432 19.456 44.032 30.208 70.656 29.184 25.088 0.512 49.664-5.632 71.168-18.432l0.512 33.28zM599.74656 782.57152h-41.984l-138.24-214.016c-3.584-5.632-6.656-11.776-9.216-17.92h-1.024c1.024 12.8 1.536 25.6 1.536 38.4v193.536h-35.328v-274.944h44.544l134.144 210.432c4.096 6.144 8.192 12.288 11.264 18.944h0.512c-1.536-13.312-2.048-26.624-1.536-39.936v-188.928h35.328v274.432zM866.49856 782.57152h-48.64l-103.424-124.928c-2.56-3.072-5.12-6.656-7.168-10.24h-1.024v135.168h-35.328v-274.944h35.328v129.536h1.024c2.048-3.584 4.608-6.656 7.168-10.24l99.84-119.296h44.032l-115.712 132.096 123.904 142.848zM937.15456 507.11552v274.944h-35.328v-274.944h35.328z" fill="#FFFFFF" p-id="3341">
 </path>
</svg>
