<svg class="icon" height="200" p-id="10999" t="1726908586583" version="1.1" viewBox="0 0 1024 1024" width="200" xmlns="http://www.w3.org/2000/svg">
 <path d="M833.8432 102.4H190.19264A87.7568 87.7568 0 0 0 102.4 190.18752v643.6608A87.7568 87.7568 0 0 0 190.18752 921.6h643.6608c48.47104-0.02048 87.75168-39.3216 87.75168-87.78752V190.18752c-0.02048-48.47104-39.3216-87.75168-87.78752-87.75168l0.03584-0.03584z m29.24032 87.78752v175.54432h-204.81536V160.9216h175.54432a29.2352 29.2352 0 0 1 29.27104 29.27104z m-105.90208 409.6a131.65056 131.65056 0 0 0-98.9184-98.9184V424.2176h204.82048v175.57504h-105.90208z m-475.136-175.616a117.02784 117.02784 0 0 0 83.6864 83.6864v91.89376H160.9216V424.17664h121.12896z m225.84832-58.4704A116.992 116.992 0 0 0 424.24832 282.0096V160.9216h175.50336v204.81536H507.9296l-0.03584-0.03584zM424.24832 507.8528a116.95616 116.95616 0 0 0 83.64544-83.64544h91.89376V500.8384a131.6864 131.6864 0 0 0-98.9184 98.87744H424.2176V507.89376l0.03584-0.03584z m76.62592 150.41024a131.6864 131.6864 0 0 0 98.87744 98.87744v105.90208H424.24832v-204.81536h76.62592v0.03584z m128.1536 43.85792a73.13408 73.13408 0 1 1 0-146.26816c40.38656 0.00512 73.12896 32.74752 73.12896 73.13408 0 40.38656-32.7424 73.12896-73.12896 73.13408zM190.1568 160.9216h175.54432v121.12896a117.02784 117.02784 0 0 0-83.65056 83.6864H160.9216v-175.616a29.2352 29.2352 0 0 1 29.27104-29.2352l-0.03584 0.03584zM160.9216 833.8432v-175.54432h204.81536v204.77952h-175.616a29.2352 29.2352 0 0 1-29.2352-29.27104l0.03584 0.03584z m672.93184 29.2352h-175.54432v-105.90208a131.65056 131.65056 0 0 0 98.87744-98.9184h105.90208v175.54944a29.2352 29.2352 0 0 1-29.27104 29.27104h0.03584z" fill="#6E4FF4" p-id="11000">
 </path>
</svg>
