<svg class="icon" height="200" p-id="8928" t="1726905754482" version="1.1" viewBox="0 0 1024 1024" width="200" xmlns="http://www.w3.org/2000/svg">
 <path d="M958.4 939.6H65.6c-36 0-65.6-29.6-65.6-65.6s29.6-65.6 65.6-65.6h892.4c36 0 65.6 29.6 65.6 65.6 0.4 36-29.2 65.6-65.2 65.6zM1024 683.6c0 36-29.6 65.6-65.6 65.6H65.6c-36 0-65.6-29.6-65.6-65.6s29.6-65.6 65.6-65.6c4.4 0 8-3.2 8-7.6C84 472 200.8 307.2 388.8 255.2c-4.4-12.8-6.8-26.8-6.8-41.2 0-71.6 58-129.6 129.6-129.6s129.6 58 129.6 129.6c0 14-2.4 28-6.8 41.2 188 52 304.8 216.8 315.2 355.2 0.4 4.4 4 7.6 8 7.6 36.8-0.4 66.4 29.2 66.4 65.6z" fill="#F2B46B" p-id="8929">
 </path>
 <path d="M431.6 348.4c-2-12.8-14.4-21.2-26.8-18.8-39.2 6.8-82 27.6-120.4 58.4-37.6 30.4-67.2 67.2-83.2 103.6-5.2 11.6 0.4 25.6 12 30.4 3.2 1.2 6 2 9.2 2 8.8 0 17.6-5.2 21.2-14C270.8 448 348 386.4 412.4 375.2c12.8-2 21.6-14 19.2-26.8zM583.6 214c0-39.6-32-71.6-71.6-71.6s-71.6 32-71.6 71.6c0 10.4 2.4 20.4 6.4 29.2 21.2-2.8 42.8-4.4 65.6-4.4 22.8 0 44.4 1.6 65.6 4.4 3.6-8.8 5.6-18.8 5.6-29.2z" fill="#A85C3F" p-id="8930">
 </path>
</svg>
