<svg class="icon" height="200" p-id="6438" t="1721139534210" version="1.1" viewBox="0 0 1024 1024" width="200" xmlns="http://www.w3.org/2000/svg">
 <path d="M844.8 216.7h-183c-43.2 0-85.2 12.4-121.5 35.7l-7.6 4.9c-12.6 8.1-28.8 8.1-41.4 0l-7.5-4.8c-36.3-23.4-78.3-35.7-121.4-35.7H179.3c-25.1 0-45.6 20.5-45.6 45.6v454.4c0 25.1 20.5 45.6 45.6 45.6h183c35.5 0 70.1 10.2 99.9 29.4l4.5 2.8c14 8.6 29.6 12.9 45.3 12.9 15.7 0 31.3-4.3 45.3-12.9l4.1-2.5 0.3-0.2c29.9-19.2 64.5-29.4 100.1-29.4h183c25.1 0 45.6-20.5 45.6-45.6V262.3c0-25.1-20.5-45.6-45.6-45.6zM483.6 758c-36.3-23.3-78.2-35.6-121.4-35.6h-183c-3.1 0-5.6-2.5-5.6-5.6V262.3c0-3.1 2.5-5.6 5.6-5.6h183.1c35.5 0 70 10.2 99.8 29.4l7.6 4.8c7 4.5 14.5 7.7 22.3 9.8v462c-1.5-0.7-3-1.5-4.4-2.4l-4-2.3z m366.8-41.3c0 3.1-2.5 5.6-5.6 5.6h-183c-43.2 0-85.2 12.3-121.5 35.6l-4 2.4c-1.4 0.9-2.8 1.6-4.3 2.3v-462c7.8-2 15.3-5.3 22.3-9.8l7.6-4.9c29.8-19.2 64.4-29.4 99.9-29.4h183c3.1 0 5.6 2.5 5.6 5.6v454.6z" fill="#ACBEC9" p-id="6439">
 </path>
 <path d="M427.7 358.7h-186c-11 0-20 9-20 20s9 20 20 20h186c11 0 20-9 20-20s-9-20-20-20zM427.7 478h-186c-11 0-20 9-20 20s9 20 20 20h186c11 0 20-9 20-20s-9-20-20-20zM787 358.7H601c-11 0-20 9-20 20s9 20 20 20h186c11 0 20-9 20-20s-9-20-20-20zM787 478H601c-11 0-20 9-20 20s9 20 20 20h186c11 0 20-9 20-20s-9-20-20-20z" fill="#EB5F9D" p-id="6440">
 </path>
 <path d="M427.7 597.3h-186c-11 0-20 9-20 20s9 20 20 20h186c11 0 20-9 20-20s-9-20-20-20zM787 597.3H601c-11 0-20 9-20 20s9 20 20 20h186c11 0 20-9 20-20s-9-20-20-20z" fill="#ACBEC9" p-id="6441">
 </path>
</svg>
