<svg class="icon" height="200" p-id="47213" t="1721137250798" version="1.1" viewBox="0 0 1024 1024" width="200" xmlns="http://www.w3.org/2000/svg">
 <path d="M740.72064 988.16H134.10304a112.10752 112.10752 0 0 1-112.10752-112.10752V113.54112A112.10752 112.10752 0 0 1 134.10304 1.35168h538.2144a112.14848 112.14848 0 0 1 112.18944 112.10752v291.6352h89.7024c49.5616 0 89.7024 40.09984 89.7024 89.66144v381.29664a112.10752 112.10752 0 0 1-112.10752 112.10752h-111.08352zM111.65696 113.54112v762.51136c0 12.45184 10.0352 22.40512 22.44608 22.40512h560.7424V113.54112a22.40512 22.40512 0 0 0-22.44608-22.528H134.10304a22.40512 22.40512 0 0 0-22.44608 22.528z m672.84992 784.91648h67.25632a22.40512 22.40512 0 0 0 22.40512-22.40512v-381.29664h-89.7024v403.70176z" fill="#2B2F36" p-id="47214">
 </path>
 <path d="M232.89856 200.45824a44.89216 44.89216 0 0 0 0 89.74336h179.4048a44.89216 44.89216 0 0 0 0-89.7024h-179.4048z m0 156.99968a44.89216 44.89216 0 1 0 0 89.78432h269.1072a44.89216 44.89216 0 0 0 0-89.78432h-269.1072z" fill="#0BA2FF" p-id="47215">
 </path>
</svg>
