<svg class="icon" height="200" p-id="43705" t="1721135580810" version="1.1" viewBox="0 0 1025 1024" width="200" xmlns="http://www.w3.org/2000/svg">
 <path d="M394.189544 945.031036H124.912011c-20.477379 0-37.883151-16.381903-38.90702-36.859282V123.888142c0-22.525117 16.381903-38.90702 38.90702-38.90702h616.369105c21.501248 0 38.90702 16.381903 38.90702 38.90702V358.354131c0 22.525117 16.381903 38.90702 38.90702 38.90702 21.501248 0 38.90702-16.381903 38.90702-38.90702V123.888142c0-65.527612-51.193447-117.744929-115.697191-117.744928H124.912011C60.408268 6.143214 9.214821 58.36053 9.214821 123.888142v782.235874c0 65.527612 51.193447 117.744929 115.69719 117.744929h270.301402c21.501248 0 38.90702-16.381903 38.90702-38.90702-1.023869-22.525117-18.429641-39.930889-39.930889-39.930889z m0 0" fill="#B8DDFF" p-id="43706">
 </path>
 <path d="M432.072695 537.531196c0-24.572855-16.381903-41.978627-39.930889-41.978627h-174.057721c-22.525117 0-39.930889 18.429641-39.930889 41.978627 0 24.572855 16.381903 41.978627 39.930889 41.978627h175.08159c20.477379 1.023869 38.90702-17.405772 38.90702-41.978627zM687.016062 302.041339c0-24.572855-15.358034-41.978627-36.859282-41.978627H215.012478c-20.477379 0-36.859282 18.429641-36.859282 41.978627 0 24.572855 15.358034 41.978627 36.859282 41.978626h436.168171c18.429641 1.023869 35.835413-19.45351 35.835413-41.978626z" fill="#B8DDFF" p-id="43707">
 </path>
 <path d="M1012.606386 952.198119L877.455686 822.166763c24.572855-34.811544 41.978627-76.790171 45.050233-121.840405 14.334165-138.222308-81.909516-254.943367-220.131823-269.277532-138.222308-14.334165-254.943367 81.909516-269.277532 220.131823-14.334165 138.222308 81.909516 254.943367 220.131823 269.277532 61.432137 7.167083 118.768798-8.190952 163.819031-39.930888l138.222307 132.079093c16.381903 15.358034 41.978627 15.358034 58.36053-1.023869 16.381903-17.405772 15.358034-43.002496-1.023869-59.384398zM845.715748 691.111538c-9.214821 92.148205-94.195943 160.747424-186.344148 151.532604-93.172074-9.214821-160.747424-92.148205-151.532603-185.320279 9.214821-93.172074 92.148205-160.747424 186.344148-151.532604 92.148205 9.214821 159.723555 92.148205 151.532603 185.320279z" fill="#2980FF" p-id="43708">
 </path>
 <path d="M211.940872 683.944455c-19.45351 0-33.787675 18.429641-33.787676 41.978627s14.334165 41.978627 33.787676 41.978627h101.363025c19.45351 0 33.787675-18.429641 33.787675-41.978627s-14.334165-41.978627-33.787675-41.978627h-101.363025z" fill="#B8DDFF" p-id="43709">
 </path>
</svg>
