<svg class="icon" height="200" p-id="16417" t="1721215880950" version="1.1" viewBox="0 0 1024 1024" width="200" xmlns="http://www.w3.org/2000/svg">
 <path d="M398.572308 658.116923l19.101538-62.030769 128.196923-7.483077-5.710769-99.249231-91.766154 4.923077 48.049231-154.584615h37.218461v-99.249231h-189.44l21.464616-56.32L247.335385 143.753846 152.221538 389.316923l117.366154 42.929231 35.643077-92.553846h20.676923l-50.412307 163.84L157.538462 512l2.166153 97.28 84.283077-4.135385L157.538462 886.153846l170.732307-1.378461 68.726154-221.735385 47.064615 210.116923L551.384615 866.461538l-39.384615-216.615384-113.427692 8.270769z m467.298461-435.790769H564.972308V738.461538L571.076923 846.769231s86.449231-67.544615 126.424615-115.987693L866.461538 728.615385l-0.590769-506.289231z m-99.249231 327.286154l-52.972307 3.347692V321.575385h52.972307v228.036923z" fill="#287FF9" p-id="16418">
 </path>
</svg>
